STARTFONT 2.1
COMMENT
COMMENT Converted from OpenType font "GenBasR.ttf" by "otf2bdf 3.0".
COMMENT
FONT -FreeType-Gentium Basic-Medium-R-Normal--19-190-72-72-P-84-ISO10646-1
SIZE 19 72 72
FONTBOUNDINGBOX 28 28 -10 -7
STARTPROPERTIES 19
FOUNDRY "FreeType"
FAMILY_NAME "Gentium Basic"
WEIGHT_NAME "Medium"
SLANT "R"
SETWIDTH_NAME "Normal"
ADD_STYLE_NAME ""
PIXEL_SIZE 19
POINT_SIZE 190
RESOLUTION_X 72
RESOLUTION_Y 72
SPACING "P"
AVERAGE_WIDTH 84
CHARSET_REGISTRY "ISO10646"
CHARSET_ENCODING "1"
FONT_ASCENT 16
FONT_DESCENT 5
COPYRIGHT "Copyright (c) SIL International, 2003-2008."
_OTF_FONTFILE "GenBasR.ttf"
_OTF_PSNAME "GentiumBasic"
ENDPROPERTIES
CHARS 704
STARTCHAR 0020
ENCODING 32
SWIDTH 210 0
DWIDTH 4 0
BBX 0 0 0 0
BITMAP
ENDCHAR
STARTCHAR 0021
ENCODING 33
SWIDTH 263 0
DWIDTH 5 0
BBX 2 15 2 -1
BITMAP
80
80
80
80
80
80
80
80
80
80
00
00
C0
C0
80
ENDCHAR
STARTCHAR 0022
ENCODING 34
SWIDTH 421 0
DWIDTH 8 0
BBX 6 6 1 8
BITMAP
CC
4C
48
48
48
48
ENDCHAR
STARTCHAR 0023
ENCODING 35
SWIDTH 473 0
DWIDTH 9 0
BBX 8 11 1 1
BITMAP
1A
12
12
7F
24
24
24
FE
48
48
50
ENDCHAR
STARTCHAR 0024
ENCODING 36
SWIDTH 473 0
DWIDTH 9 0
BBX 7 15 1 -2
BITMAP
10
10
7E
94
90
D0
70
1C
16
12
92
92
FC
10
10
ENDCHAR
STARTCHAR 0025
ENCODING 37
SWIDTH 684 0
DWIDTH 13 0
BBX 11 11 1 0
BITMAP
7040
9080
8980
8B00
9200
75C0
0A20
1A20
1220
2220
41C0
ENDCHAR
STARTCHAR 0026
ENCODING 38
SWIDTH 631 0
DWIDTH 12 0
BBX 11 13 1 0
BITMAP
1C00
2200
2200
2200
2400
3800
31E0
D880
8C80
8C80
8700
C780
3CE0
ENDCHAR
STARTCHAR 0027
ENCODING 39
SWIDTH 263 0
DWIDTH 5 0
BBX 2 6 1 8
BITMAP
C0
40
40
40
40
40
ENDCHAR
STARTCHAR 0028
ENCODING 40
SWIDTH 315 0
DWIDTH 6 0
BBX 4 18 1 -3
BITMAP
30
60
40
40
80
80
80
80
80
80
80
80
80
80
C0
40
60
30
ENDCHAR
STARTCHAR 0029
ENCODING 41
SWIDTH 315 0
DWIDTH 6 0
BBX 4 18 1 -3
BITMAP
C0
60
20
30
10
10
10
10
10
10
10
10
10
10
20
20
60
80
ENDCHAR
STARTCHAR 002A
ENCODING 42
SWIDTH 421 0
DWIDTH 8 0
BBX 7 7 1 7
BITMAP
10
94
DE
30
FC
92
10
ENDCHAR
STARTCHAR 002B
ENCODING 43
SWIDTH 421 0
DWIDTH 8 0
BBX 7 7 0 2
BITMAP
10
10
10
FE
10
10
10
ENDCHAR
STARTCHAR 002C
ENCODING 44
SWIDTH 210 0
DWIDTH 4 0
BBX 2 5 1 -3
BITMAP
40
C0
40
40
80
ENDCHAR
STARTCHAR 002D
ENCODING 45
SWIDTH 315 0
DWIDTH 6 0
BBX 5 1 1 4
BITMAP
F8
ENDCHAR
STARTCHAR 002E
ENCODING 46
SWIDTH 210 0
DWIDTH 4 0
BBX 2 3 1 -1
BITMAP
C0
C0
80
ENDCHAR
STARTCHAR 002F
ENCODING 47
SWIDTH 473 0
DWIDTH 9 0
BBX 8 18 0 -3
BITMAP
01
01
03
02
06
04
04
0C
08
08
18
10
30
20
20
60
40
C0
ENDCHAR
STARTCHAR 0030
ENCODING 48
SWIDTH 473 0
DWIDTH 9 0
BBX 7 11 1 0
BITMAP
38
44
82
82
82
82
82
82
84
44
38
ENDCHAR
STARTCHAR 0031
ENCODING 49
SWIDTH 473 0
DWIDTH 9 0
BBX 6 12 1 0
BITMAP
10
70
90
10
10
10
10
10
10
10
10
FC
ENDCHAR
STARTCHAR 0032
ENCODING 50
SWIDTH 421 0
DWIDTH 8 0
BBX 6 12 1 0
BITMAP
3C
44
C4
04
04
08
10
10
20
44
84
FC
ENDCHAR
STARTCHAR 0033
ENCODING 51
SWIDTH 421 0
DWIDTH 8 0
BBX 7 12 0 0
BITMAP
1C
26
62
02
04
1C
02
02
02
02
86
7C
ENDCHAR
STARTCHAR 0034
ENCODING 52
SWIDTH 473 0
DWIDTH 9 0
BBX 7 12 1 0
BITMAP
04
0C
0C
14
14
24
44
44
FE
04
04
1E
ENDCHAR
STARTCHAR 0035
ENCODING 53
SWIDTH 473 0
DWIDTH 9 0
BBX 6 11 2 0
BITMAP
7C
40
40
40
78
84
04
04
04
84
78
ENDCHAR
STARTCHAR 0036
ENCODING 54
SWIDTH 473 0
DWIDTH 9 0
BBX 7 12 1 0
BITMAP
0C
30
40
40
80
FC
C6
82
82
82
44
38
ENDCHAR
STARTCHAR 0037
ENCODING 55
SWIDTH 473 0
DWIDTH 9 0
BBX 7 11 1 0
BITMAP
FE
82
04
04
08
08
18
10
30
20
60
ENDCHAR
STARTCHAR 0038
ENCODING 56
SWIDTH 473 0
DWIDTH 9 0
BBX 7 12 1 0
BITMAP
78
C4
C4
C4
E8
3C
4E
82
82
82
C2
7C
ENDCHAR
STARTCHAR 0039
ENCODING 57
SWIDTH 473 0
DWIDTH 9 0
BBX 7 11 1 0
BITMAP
38
44
82
82
82
C6
7A
02
04
08
70
ENDCHAR
STARTCHAR 003A
ENCODING 58
SWIDTH 210 0
DWIDTH 4 0
BBX 2 10 1 -1
BITMAP
80
C0
80
00
00
00
00
C0
C0
80
ENDCHAR
STARTCHAR 003B
ENCODING 59
SWIDTH 210 0
DWIDTH 4 0
BBX 2 12 1 -3
BITMAP
80
C0
80
00
00
00
00
40
C0
40
40
80
ENDCHAR
STARTCHAR 003C
ENCODING 60
SWIDTH 421 0
DWIDTH 8 0
BBX 7 6 1 2
BITMAP
06
1C
E0
C0
38
06
ENDCHAR
STARTCHAR 003D
ENCODING 61
SWIDTH 421 0
DWIDTH 8 0
BBX 7 4 1 3
BITMAP
FE
00
00
FE
ENDCHAR
STARTCHAR 003E
ENCODING 62
SWIDTH 421 0
DWIDTH 8 0
BBX 7 6 1 2
BITMAP
C0
70
0E
1C
70
80
ENDCHAR
STARTCHAR 003F
ENCODING 63
SWIDTH 421 0
DWIDTH 8 0
BBX 6 15 1 -1
BITMAP
38
44
84
84
04
08
10
10
20
20
20
00
30
30
20
ENDCHAR
STARTCHAR 0040
ENCODING 64
SWIDTH 842 0
DWIDTH 16 0
BBX 14 15 1 -3
BITMAP
07E0
1830
2008
47C8
8844
9044
9044
9044
9044
9048
88C8
4770
2008
1830
0FC0
ENDCHAR
STARTCHAR 0041
ENCODING 65
SWIDTH 578 0
DWIDTH 11 0
BBX 11 12 0 0
BITMAP
0400
0600
0E00
0A00
0B00
1100
1100
1F80
2180
2080
20C0
F1E0
ENDCHAR
STARTCHAR 0042
ENCODING 66
SWIDTH 526 0
DWIDTH 10 0
BBX 8 12 1 0
BITMAP
FC
42
42
42
44
7E
43
41
41
41
43
FE
ENDCHAR
STARTCHAR 0043
ENCODING 67
SWIDTH 526 0
DWIDTH 10 0
BBX 8 12 1 0
BITMAP
1E
63
80
80
80
80
80
80
80
C0
63
3C
ENDCHAR
STARTCHAR 0044
ENCODING 68
SWIDTH 578 0
DWIDTH 11 0
BBX 9 12 1 0
BITMAP
FC00
4300
4100
4080
4080
4080
4080
4080
4080
4100
4200
FC00
ENDCHAR
STARTCHAR 0045
ENCODING 69
SWIDTH 473 0
DWIDTH 9 0
BBX 8 12 1 0
BITMAP
FE
42
40
40
40
7C
48
40
40
42
43
FE
ENDCHAR
STARTCHAR 0046
ENCODING 70
SWIDTH 473 0
DWIDTH 9 0
BBX 7 12 1 0
BITMAP
FE
42
40
40
40
7C
48
40
40
40
40
F0
ENDCHAR
STARTCHAR 0047
ENCODING 71
SWIDTH 578 0
DWIDTH 11 0
BBX 10 12 1 0
BITMAP
0F00
3180
4000
8000
8000
8000
83C0
8080
8080
4080
6080
1F00
ENDCHAR
STARTCHAR 0048
ENCODING 72
SWIDTH 631 0
DWIDTH 12 0
BBX 10 12 1 0
BITMAP
E1C0
4080
4080
4080
4080
7F80
4080
4080
4080
4080
4080
E1C0
ENDCHAR
STARTCHAR 0049
ENCODING 73
SWIDTH 315 0
DWIDTH 6 0
BBX 3 12 1 0
BITMAP
E0
40
40
40
40
40
40
40
40
40
40
E0
ENDCHAR
STARTCHAR 004A
ENCODING 74
SWIDTH 315 0
DWIDTH 6 0
BBX 6 15 -1 -3
BITMAP
3C
08
08
08
08
08
08
08
08
08
08
08
08
90
E0
ENDCHAR
STARTCHAR 004B
ENCODING 75
SWIDTH 578 0
DWIDTH 11 0
BBX 10 12 1 0
BITMAP
E780
4200
4400
4800
5000
6000
5000
5800
4C00
4600
4300
E1C0
ENDCHAR
STARTCHAR 004C
ENCODING 76
SWIDTH 473 0
DWIDTH 9 0
BBX 7 12 1 0
BITMAP
E0
40
40
40
40
40
40
40
40
42
42
FE
ENDCHAR
STARTCHAR 004D
ENCODING 77
SWIDTH 789 0
DWIDTH 15 0
BBX 14 12 1 0
BITMAP
E038
6030
7070
5050
5050
5890
4890
4D10
4510
4710
4210
E27C
ENDCHAR
STARTCHAR 004E
ENCODING 78
SWIDTH 631 0
DWIDTH 12 0
BBX 10 12 1 0
BITMAP
C1C0
6080
7080
5080
5880
4C80
4480
4680
4380
4180
4180
E080
ENDCHAR
STARTCHAR 004F
ENCODING 79
SWIDTH 578 0
DWIDTH 11 0
BBX 9 12 1 0
BITMAP
1E00
6300
8100
8080
8080
8080
8080
8080
8080
4100
6200
3C00
ENDCHAR
STARTCHAR 0050
ENCODING 80
SWIDTH 526 0
DWIDTH 10 0
BBX 8 12 1 0
BITMAP
FC
42
41
41
41
42
5C
40
40
40
40
F0
ENDCHAR
STARTCHAR 0051
ENCODING 81
SWIDTH 578 0
DWIDTH 11 0
BBX 11 15 1 -3
BITMAP
1E00
6300
8100
8080
8080
8080
8080
8080
8080
4100
6200
3C00
0600
0320
00C0
ENDCHAR
STARTCHAR 0052
ENCODING 82
SWIDTH 578 0
DWIDTH 11 0
BBX 10 12 1 0
BITMAP
FC00
4300
4100
4100
4100
4200
7C00
4C00
4600
4300
4300
E1C0
ENDCHAR
STARTCHAR 0053
ENCODING 83
SWIDTH 473 0
DWIDTH 9 0
BBX 7 12 1 0
BITMAP
3C
C6
80
80
E0
38
0C
02
02
82
C4
F8
ENDCHAR
STARTCHAR 0054
ENCODING 84
SWIDTH 526 0
DWIDTH 10 0
BBX 9 12 1 0
BITMAP
FF80
8880
8880
0800
0800
0800
0800
0800
0800
0800
0800
3E00
ENDCHAR
STARTCHAR 0055
ENCODING 85
SWIDTH 631 0
DWIDTH 12 0
BBX 10 12 1 0
BITMAP
E1C0
4080
4080
4080
4080
4080
4080
4080
4080
4080
2100
1E00
ENDCHAR
STARTCHAR 0056
ENCODING 86
SWIDTH 631 0
DWIDTH 12 0
BBX 12 12 0 0
BITMAP
F0F0
2040
3040
3040
1080
1880
0980
0900
0D00
0700
0600
0600
ENDCHAR
STARTCHAR 0057
ENCODING 87
SWIDTH 842 0
DWIDTH 16 0
BBX 16 12 0 0
BITMAP
F10F
2184
2184
2184
32C4
3248
1268
1468
1C28
1C38
0830
0810
ENDCHAR
STARTCHAR 0058
ENCODING 88
SWIDTH 631 0
DWIDTH 12 0
BBX 11 12 0 0
BITMAP
F9E0
2080
3180
1900
0E00
0600
0600
0B00
1980
3080
20C0
F1E0
ENDCHAR
STARTCHAR 0059
ENCODING 89
SWIDTH 578 0
DWIDTH 11 0
BBX 11 12 0 0
BITMAP
E1E0
3080
3180
1900
0A00
0E00
0400
0400
0400
0400
0400
1F00
ENDCHAR
STARTCHAR 005A
ENCODING 90
SWIDTH 526 0
DWIDTH 10 0
BBX 8 12 1 0
BITMAP
FF
82
86
04
0C
18
10
30
60
41
C1
FF
ENDCHAR
STARTCHAR 005B
ENCODING 91
SWIDTH 315 0
DWIDTH 6 0
BBX 4 18 1 -3
BITMAP
F0
80
80
80
80
80
80
80
80
80
80
80
80
80
80
80
80
F0
ENDCHAR
STARTCHAR 005C
ENCODING 92
SWIDTH 473 0
DWIDTH 9 0
BBX 7 18 1 -3
BITMAP
80
80
C0
40
40
20
20
30
10
10
18
08
08
04
04
06
02
02
ENDCHAR
STARTCHAR 005D
ENCODING 93
SWIDTH 263 0
DWIDTH 5 0
BBX 4 18 0 -3
BITMAP
F0
10
10
10
10
10
10
10
10
10
10
10
10
10
10
10
10
F0
ENDCHAR
STARTCHAR 005E
ENCODING 94
SWIDTH 473 0
DWIDTH 9 0
BBX 7 9 1 5
BITMAP
10
18
28
2C
2C
44
46
82
82
ENDCHAR
STARTCHAR 005F
ENCODING 95
SWIDTH 473 0
DWIDTH 9 0
BBX 7 1 1 -2
BITMAP
FE
ENDCHAR
STARTCHAR 0060
ENCODING 96
SWIDTH 315 0
DWIDTH 6 0
BBX 4 4 0 10
BITMAP
C0
60
20
10
ENDCHAR
STARTCHAR 0061
ENCODING 97
SWIDTH 473 0
DWIDTH 9 0
BBX 7 9 1 0
BITMAP
3C
44
84
04
3C
C4
84
8C
76
ENDCHAR
STARTCHAR 0062
ENCODING 98
SWIDTH 526 0
DWIDTH 10 0
BBX 9 14 0 0
BITMAP
4000
C000
4000
4000
4000
4600
5900
6080
4080
4080
4080
4100
6100
3E00
ENDCHAR
STARTCHAR 0063
ENCODING 99
SWIDTH 421 0
DWIDTH 8 0
BBX 6 9 1 0
BITMAP
3C
44
80
80
80
80
80
C4
78
ENDCHAR
STARTCHAR 0064
ENCODING 100
SWIDTH 526 0
DWIDTH 10 0
BBX 8 14 1 0
BITMAP
06
02
02
02
02
3E
42
82
82
82
82
82
46
3B
ENDCHAR
STARTCHAR 0065
ENCODING 101
SWIDTH 473 0
DWIDTH 9 0
BBX 7 9 1 0
BITMAP
3C
44
82
82
FE
80
80
42
3C
ENDCHAR
STARTCHAR 0066
ENCODING 102
SWIDTH 315 0
DWIDTH 6 0
BBX 6 14 1 0
BITMAP
1C
24
40
40
40
F8
40
40
40
40
40
40
40
F0
ENDCHAR
STARTCHAR 0067
ENCODING 103
SWIDTH 526 0
DWIDTH 10 0
BBX 10 13 0 -4
BITMAP
3EC0
4300
8100
8100
C200
3C00
3000
7800
2780
C080
8080
C100
3E00
ENDCHAR
STARTCHAR 0068
ENCODING 104
SWIDTH 526 0
DWIDTH 10 0
BBX 8 14 1 0
BITMAP
40
C0
40
40
40
4C
52
62
42
42
42
42
42
E7
ENDCHAR
STARTCHAR 0069
ENCODING 105
SWIDTH 263 0
DWIDTH 5 0
BBX 3 12 1 0
BITMAP
C0
C0
00
40
C0
40
40
40
40
40
40
E0
ENDCHAR
STARTCHAR 006A
ENCODING 106
SWIDTH 263 0
DWIDTH 5 0
BBX 5 16 -2 -4
BITMAP
18
18
00
08
18
08
08
08
08
08
08
08
08
08
10
E0
ENDCHAR
STARTCHAR 006B
ENCODING 107
SWIDTH 526 0
DWIDTH 10 0
BBX 8 14 1 0
BITMAP
40
C0
40
40
40
4F
44
48
70
70
58
4C
46
E7
ENDCHAR
STARTCHAR 006C
ENCODING 108
SWIDTH 263 0
DWIDTH 5 0
BBX 3 14 1 0
BITMAP
40
C0
40
40
40
40
40
40
40
40
40
40
40
E0
ENDCHAR
STARTCHAR 006D
ENCODING 109
SWIDTH 789 0
DWIDTH 15 0
BBX 13 9 1 0
BITMAP
CC60
5290
6310
4210
4210
4210
4210
4210
E738
ENDCHAR
STARTCHAR 006E
ENCODING 110
SWIDTH 526 0
DWIDTH 10 0
BBX 8 9 1 0
BITMAP
4C
D2
62
42
42
42
42
42
E7
ENDCHAR
STARTCHAR 006F
ENCODING 111
SWIDTH 526 0
DWIDTH 10 0
BBX 8 9 1 0
BITMAP
3C
42
81
81
81
81
82
42
3C
ENDCHAR
STARTCHAR 0070
ENCODING 112
SWIDTH 526 0
DWIDTH 10 0
BBX 8 13 1 -4
BITMAP
CE
72
41
41
41
41
42
62
5C
40
40
40
F0
ENDCHAR
STARTCHAR 0071
ENCODING 113
SWIDTH 526 0
DWIDTH 10 0
BBX 9 13 1 -4
BITMAP
1D00
6300
8100
8100
8100
8100
8100
4700
3900
0100
0100
0100
0780
ENDCHAR
STARTCHAR 0072
ENCODING 114
SWIDTH 421 0
DWIDTH 8 0
BBX 6 9 1 0
BITMAP
5C
E4
60
40
40
40
40
40
F0
ENDCHAR
STARTCHAR 0073
ENCODING 115
SWIDTH 368 0
DWIDTH 7 0
BBX 5 9 1 0
BITMAP
70
88
80
C0
30
08
88
88
F0
ENDCHAR
STARTCHAR 0074
ENCODING 116
SWIDTH 368 0
DWIDTH 7 0
BBX 5 12 1 0
BITMAP
40
40
40
F8
40
40
40
40
40
40
48
70
ENDCHAR
STARTCHAR 0075
ENCODING 117
SWIDTH 526 0
DWIDTH 10 0
BBX 8 9 1 0
BITMAP
C6
42
42
42
42
42
42
46
3B
ENDCHAR
STARTCHAR 0076
ENCODING 118
SWIDTH 473 0
DWIDTH 9 0
BBX 9 9 0 0
BITMAP
F380
6100
2100
3200
1200
1200
1C00
0C00
0800
ENDCHAR
STARTCHAR 0077
ENCODING 119
SWIDTH 684 0
DWIDTH 13 0
BBX 13 9 0 0
BITMAP
F238
6310
2310
2510
35A0
14A0
18E0
18C0
1840
ENDCHAR
STARTCHAR 0078
ENCODING 120
SWIDTH 526 0
DWIDTH 10 0
BBX 9 9 0 0
BITMAP
F380
2100
3200
1C00
0C00
1600
2200
2100
F380
ENDCHAR
STARTCHAR 0079
ENCODING 121
SWIDTH 473 0
DWIDTH 9 0
BBX 9 13 0 -4
BITMAP
F380
6100
2100
3200
1200
1400
1C00
0C00
0800
0800
1000
B000
E000
ENDCHAR
STARTCHAR 007A
ENCODING 122
SWIDTH 421 0
DWIDTH 8 0
BBX 7 9 1 0
BITMAP
FE
84
08
18
30
20
62
C2
FE
ENDCHAR
STARTCHAR 007B
ENCODING 123
SWIDTH 315 0
DWIDTH 6 0
BBX 5 18 1 -3
BITMAP
08
10
20
20
20
20
20
20
40
E0
20
20
20
20
20
20
20
18
ENDCHAR
STARTCHAR 007C
ENCODING 124
SWIDTH 210 0
DWIDTH 4 0
BBX 1 20 2 -4
BITMAP
80
80
80
80
80
80
80
80
80
80
80
80
80
80
80
80
80
80
80
80
ENDCHAR
STARTCHAR 007D
ENCODING 125
SWIDTH 315 0
DWIDTH 6 0
BBX 5 18 0 -3
BITMAP
C0
20
20
20
20
20
20
20
38
10
20
20
20
20
20
20
40
80
ENDCHAR
STARTCHAR 007E
ENCODING 126
SWIDTH 473 0
DWIDTH 9 0
BBX 9 4 0 4
BITMAP
3000
7D80
4F00
8600
ENDCHAR
STARTCHAR 00A0
ENCODING 160
SWIDTH 210 0
DWIDTH 4 0
BBX 0 0 0 0
BITMAP
ENDCHAR
STARTCHAR 00A1
ENCODING 161
SWIDTH 263 0
DWIDTH 5 0
BBX 2 14 2 -5
BITMAP
40
C0
40
80
80
80
80
80
80
80
80
80
80
80
ENDCHAR
STARTCHAR 00A2
ENCODING 162
SWIDTH 473 0
DWIDTH 9 0
BBX 7 12 1 0
BITMAP
10
10
3E
D4
90
90
90
90
D2
7C
10
10
ENDCHAR
STARTCHAR 00A3
ENCODING 163
SWIDTH 473 0
DWIDTH 9 0
BBX 7 12 1 0
BITMAP
3C
46
44
40
40
40
F0
40
40
42
42
FE
ENDCHAR
STARTCHAR 00A4
ENCODING 164
SWIDTH 473 0
DWIDTH 9 0
BBX 7 6 1 3
BITMAP
84
7E
44
44
44
FE
ENDCHAR
STARTCHAR 00A5
ENCODING 165
SWIDTH 473 0
DWIDTH 9 0
BBX 9 11 0 0
BITMAP
E780
6300
3200
1400
1C00
0800
7F00
0800
0800
0800
3E00
ENDCHAR
STARTCHAR 00A6
ENCODING 166
SWIDTH 210 0
DWIDTH 4 0
BBX 1 20 2 -4
BITMAP
80
80
80
80
80
80
80
80
80
00
00
80
80
80
80
80
80
80
80
80
ENDCHAR
STARTCHAR 00A7
ENCODING 167
SWIDTH 473 0
DWIDTH 9 0
BBX 7 13 1 0
BITMAP
70
98
80
E0
B8
86
82
62
3C
0C
84
C4
78
ENDCHAR
STARTCHAR 00A8
ENCODING 168
SWIDTH 368 0
DWIDTH 7 0
BBX 5 2 1 10
BITMAP
88
88
ENDCHAR
STARTCHAR 00A9
ENCODING 169
SWIDTH 736 0
DWIDTH 14 0
BBX 12 12 1 0
BITMAP
0F00
30C0
5E20
9220
A010
A010
A010
A010
90A0
4F20
2040
1F80
ENDCHAR
STARTCHAR 00AA
ENCODING 170
SWIDTH 263 0
DWIDTH 5 0
BBX 5 7 0 5
BITMAP
30
D0
70
D0
B0
48
F0
ENDCHAR
STARTCHAR 00AB
ENCODING 171
SWIDTH 473 0
DWIDTH 9 0
BBX 7 8 1 0
BITMAP
22
24
4C
D8
D8
4C
24
22
ENDCHAR
STARTCHAR 00AC
ENCODING 172
SWIDTH 473 0
DWIDTH 9 0
BBX 8 4 0 2
BITMAP
FF
01
01
01
ENDCHAR
STARTCHAR 00AD
ENCODING 173
SWIDTH 315 0
DWIDTH 6 0
BBX 5 1 1 4
BITMAP
F8
ENDCHAR
STARTCHAR 00AE
ENCODING 174
SWIDTH 368 0
DWIDTH 7 0
BBX 7 6 0 7
BITMAP
38
EE
AA
B2
EE
38
ENDCHAR
STARTCHAR 00AF
ENCODING 175
SWIDTH 473 0
DWIDTH 9 0
BBX 6 1 2 11
BITMAP
FC
ENDCHAR
STARTCHAR 00B0
ENCODING 176
SWIDTH 368 0
DWIDTH 7 0
BBX 5 5 1 7
BITMAP
70
88
88
88
70
ENDCHAR
STARTCHAR 00B1
ENCODING 177
SWIDTH 421 0
DWIDTH 8 0
BBX 7 9 0 1
BITMAP
10
10
10
FE
10
10
10
00
7E
ENDCHAR
STARTCHAR 00B2
ENCODING 178
SWIDTH 315 0
DWIDTH 6 0
BBX 4 7 1 6
BITMAP
70
90
10
20
40
90
F0
ENDCHAR
STARTCHAR 00B3
ENCODING 179
SWIDTH 315 0
DWIDTH 6 0
BBX 5 8 0 5
BITMAP
38
48
08
10
08
08
88
70
ENDCHAR
STARTCHAR 00B4
ENCODING 180
SWIDTH 315 0
DWIDTH 6 0
BBX 4 4 2 10
BITMAP
30
60
40
80
ENDCHAR
STARTCHAR 00B5
ENCODING 181
SWIDTH 526 0
DWIDTH 10 0
BBX 8 13 1 -4
BITMAP
C2
46
42
42
42
42
66
7E
5B
40
40
40
60
ENDCHAR
STARTCHAR 00B6
ENCODING 182
SWIDTH 526 0
DWIDTH 10 0
BBX 8 14 1 -2
BITMAP
3F
46
86
86
86
46
3E
06
06
06
06
06
06
0F
ENDCHAR
STARTCHAR 00B7
ENCODING 183
SWIDTH 157 0
DWIDTH 3 0
BBX 1 2 1 5
BITMAP
80
80
ENDCHAR
STARTCHAR 00B8
ENCODING 184
SWIDTH 210 0
DWIDTH 4 0
BBX 2 4 2 -4
BITMAP
C0
C0
40
80
ENDCHAR
STARTCHAR 00B9
ENCODING 185
SWIDTH 315 0
DWIDTH 6 0
BBX 5 7 1 6
BITMAP
20
E0
20
20
20
20
F8
ENDCHAR
STARTCHAR 00BA
ENCODING 186
SWIDTH 263 0
DWIDTH 5 0
BBX 4 7 0 5
BITMAP
60
90
90
90
90
60
F0
ENDCHAR
STARTCHAR 00BB
ENCODING 187
SWIDTH 473 0
DWIDTH 9 0
BBX 7 8 1 0
BITMAP
88
48
24
32
32
24
48
88
ENDCHAR
STARTCHAR 00BC
ENCODING 188
SWIDTH 578 0
DWIDTH 11 0
BBX 10 11 1 0
BITMAP
C080
4100
4100
4200
4400
E400
0980
1280
1280
27C0
41C0
ENDCHAR
STARTCHAR 00BD
ENCODING 189
SWIDTH 578 0
DWIDTH 11 0
BBX 9 11 1 0
BITMAP
C080
4100
4200
4200
4400
EF80
0C80
1100
3100
2280
4780
ENDCHAR
STARTCHAR 00BE
ENCODING 190
SWIDTH 578 0
DWIDTH 11 0
BBX 10 12 1 0
BITMAP
6000
9080
2100
1200
9200
E400
0800
0980
1280
3280
27C0
41C0
ENDCHAR
STARTCHAR 00BF
ENCODING 191
SWIDTH 421 0
DWIDTH 8 0
BBX 6 14 1 -5
BITMAP
10
30
10
10
10
10
20
20
40
80
84
84
88
70
ENDCHAR
STARTCHAR 00C0
ENCODING 192
SWIDTH 578 0
DWIDTH 11 0
BBX 11 16 0 0
BITMAP
1000
3C00
0200
0000
0400
0600
0E00
0A00
0B00
1100
1100
1F80
2180
2080
20C0
F1E0
ENDCHAR
STARTCHAR 00C1
ENCODING 193
SWIDTH 578 0
DWIDTH 11 0
BBX 11 16 0 0
BITMAP
0100
0780
0800
0000
0400
0600
0E00
0A00
0B00
1100
1100
1F80
2180
2080
20C0
F1E0
ENDCHAR
STARTCHAR 00C2
ENCODING 194
SWIDTH 578 0
DWIDTH 11 0
BBX 11 16 0 0
BITMAP
0400
0A00
1100
0000
0400
0600
0E00
0A00
0B00
1100
1100
1F80
2180
2080
20C0
F1E0
ENDCHAR
STARTCHAR 00C3
ENCODING 195
SWIDTH 578 0
DWIDTH 11 0
BBX 11 15 0 0
BITMAP
1D80
2700
0000
0400
0600
0E00
0A00
0B00
1100
1100
1F80
2180
2080
20C0
F1E0
ENDCHAR
STARTCHAR 00C4
ENCODING 196
SWIDTH 578 0
DWIDTH 11 0
BBX 11 15 0 0
BITMAP
2100
2100
0000
0400
0600
0E00
0A00
0B00
1100
1100
1F80
2180
2080
20C0
F1E0
ENDCHAR
STARTCHAR 00C5
ENCODING 197
SWIDTH 578 0
DWIDTH 11 0
BBX 11 17 0 0
BITMAP
0E00
1200
1200
0C00
0000
0400
0600
0E00
0A00
0B00
1100
1100
1F80
2180
2080
20C0
F1E0
ENDCHAR
STARTCHAR 00C6
ENCODING 198
SWIDTH 789 0
DWIDTH 15 0
BBX 14 12 0 0
BITMAP
1FF8
0508
0500
0900
0900
1FF0
1120
1100
2100
2108
610C
F3F8
ENDCHAR
STARTCHAR 00C7
ENCODING 199
SWIDTH 526 0
DWIDTH 10 0
BBX 9 16 1 -4
BITMAP
1E00
6300
8000
8000
8000
8000
8000
8000
8000
4100
6180
3E00
0800
0C00
0400
0800
ENDCHAR
STARTCHAR 00C8
ENCODING 200
SWIDTH 473 0
DWIDTH 9 0
BBX 8 16 1 0
BITMAP
40
30
08
00
FE
42
40
40
40
7C
48
40
40
42
43
FE
ENDCHAR
STARTCHAR 00C9
ENCODING 201
SWIDTH 473 0
DWIDTH 9 0
BBX 8 16 1 0
BITMAP
04
0E
30
00
FE
42
40
40
40
7C
48
40
40
42
43
FE
ENDCHAR
STARTCHAR 00CA
ENCODING 202
SWIDTH 473 0
DWIDTH 9 0
BBX 8 16 1 0
BITMAP
18
2C
44
02
FE
42
40
40
40
7C
48
40
40
42
43
FE
ENDCHAR
STARTCHAR 00CB
ENCODING 203
SWIDTH 473 0
DWIDTH 9 0
BBX 8 15 1 0
BITMAP
84
84
00
FE
42
40
40
40
7C
48
40
40
42
43
FE
ENDCHAR
STARTCHAR 00CC
ENCODING 204
SWIDTH 315 0
DWIDTH 6 0
BBX 4 16 0 0
BITMAP
80
60
10
00
70
20
20
20
20
20
20
20
20
20
20
70
ENDCHAR
STARTCHAR 00CD
ENCODING 205
SWIDTH 315 0
DWIDTH 6 0
BBX 5 16 1 0
BITMAP
18
30
C0
00
E0
40
40
40
40
40
40
40
40
40
40
E0
ENDCHAR
STARTCHAR 00CE
ENCODING 206
SWIDTH 315 0
DWIDTH 6 0
BBX 6 16 0 0
BITMAP
30
58
84
00
70
20
20
20
20
20
20
20
20
20
20
70
ENDCHAR
STARTCHAR 00CF
ENCODING 207
SWIDTH 315 0
DWIDTH 6 0
BBX 6 15 0 0
BITMAP
84
88
00
70
20
20
20
20
20
20
20
20
20
20
70
ENDCHAR
STARTCHAR 00D0
ENCODING 208
SWIDTH 578 0
DWIDTH 11 0
BBX 10 12 0 0
BITMAP
7E00
2180
2080
2040
2040
7C40
A040
2040
2040
2080
2100
7E00
ENDCHAR
STARTCHAR 00D1
ENCODING 209
SWIDTH 631 0
DWIDTH 12 0
BBX 10 15 1 0
BITMAP
1900
2600
0000
C1C0
6080
7080
5080
5880
4C80
4480
4680
4380
4180
4180
E080
ENDCHAR
STARTCHAR 00D2
ENCODING 210
SWIDTH 578 0
DWIDTH 11 0
BBX 9 16 1 0
BITMAP
2000
1800
0400
0000
1E00
6300
8100
8080
8080
8080
8080
8080
8080
4100
6200
3C00
ENDCHAR
STARTCHAR 00D3
ENCODING 211
SWIDTH 578 0
DWIDTH 11 0
BBX 9 16 1 0
BITMAP
0300
0600
1800
0000
1E00
6300
8100
8080
8080
8080
8080
8080
8080
4100
6200
3C00
ENDCHAR
STARTCHAR 00D4
ENCODING 212
SWIDTH 578 0
DWIDTH 11 0
BBX 9 16 1 0
BITMAP
0C00
1600
2200
0100
1E00
6300
8100
8080
8080
8080
8080
8080
8080
4100
6200
3C00
ENDCHAR
STARTCHAR 00D5
ENCODING 213
SWIDTH 578 0
DWIDTH 11 0
BBX 9 15 1 0
BITMAP
1900
6E00
0000
1E00
6300
8100
8080
8080
8080
8080
8080
8080
4100
6200
3C00
ENDCHAR
STARTCHAR 00D6
ENCODING 214
SWIDTH 578 0
DWIDTH 11 0
BBX 9 15 1 0
BITMAP
4200
4200
0000
1E00
6300
8100
8080
8080
8080
8080
8080
8080
4100
6200
3C00
ENDCHAR
STARTCHAR 00D7
ENCODING 215
SWIDTH 421 0
DWIDTH 8 0
BBX 6 6 1 2
BITMAP
84
48
30
30
48
84
ENDCHAR
STARTCHAR 00D8
ENCODING 216
SWIDTH 578 0
DWIDTH 11 0
BBX 9 12 1 0
BITMAP
1E80
2300
4300
8380
8480
8880
8880
9080
E100
6100
6200
BC00
ENDCHAR
STARTCHAR 00D9
ENCODING 217
SWIDTH 631 0
DWIDTH 12 0
BBX 10 16 1 0
BITMAP
3000
1800
0600
0000
E1C0
4080
4080
4080
4080
4080
4080
4080
4080
4080
2100
1E00
ENDCHAR
STARTCHAR 00DA
ENCODING 218
SWIDTH 631 0
DWIDTH 12 0
BBX 10 16 1 0
BITMAP
0100
0600
0800
0000
E1C0
4080
4080
4080
4080
4080
4080
4080
4080
4080
2100
1E00
ENDCHAR
STARTCHAR 00DB
ENCODING 219
SWIDTH 631 0
DWIDTH 12 0
BBX 10 16 1 0
BITMAP
0C00
1A00
2100
0000
E1C0
4080
4080
4080
4080
4080
4080
4080
4080
4080
2100
1E00
ENDCHAR
STARTCHAR 00DC
ENCODING 220
SWIDTH 631 0
DWIDTH 12 0
BBX 10 15 1 0
BITMAP
2100
2100
0000
E1C0
4080
4080
4080
4080
4080
4080
4080
4080
4080
2100
1E00
ENDCHAR
STARTCHAR 00DD
ENCODING 221
SWIDTH 578 0
DWIDTH 11 0
BBX 11 16 0 0
BITMAP
0100
0380
0C00
0000
E1E0
3080
3180
1900
0A00
0E00
0400
0400
0400
0400
0400
1F00
ENDCHAR
STARTCHAR 00DE
ENCODING 222
SWIDTH 526 0
DWIDTH 10 0
BBX 8 12 1 0
BITMAP
F0
40
7C
42
41
41
41
41
62
5C
40
F0
ENDCHAR
STARTCHAR 00DF
ENCODING 223
SWIDTH 578 0
DWIDTH 11 0
BBX 9 14 1 0
BITMAP
1E00
2300
4100
4100
4100
4600
4800
4800
4600
4380
4080
4880
4880
CF00
ENDCHAR
STARTCHAR 00E0
ENCODING 224
SWIDTH 473 0
DWIDTH 9 0
BBX 7 14 1 0
BITMAP
60
20
10
10
08
3C
44
84
04
3C
C4
84
8C
76
ENDCHAR
STARTCHAR 00E1
ENCODING 225
SWIDTH 473 0
DWIDTH 9 0
BBX 7 14 1 0
BITMAP
0C
08
10
10
00
3C
44
84
04
3C
C4
84
8C
76
ENDCHAR
STARTCHAR 00E2
ENCODING 226
SWIDTH 473 0
DWIDTH 9 0
BBX 7 14 1 0
BITMAP
10
38
4C
84
00
3C
44
84
04
3C
C4
84
8C
76
ENDCHAR
STARTCHAR 00E3
ENCODING 227
SWIDTH 473 0
DWIDTH 9 0
BBX 7 13 1 0
BITMAP
22
74
98
00
3C
44
84
04
3C
C4
84
8C
76
ENDCHAR
STARTCHAR 00E4
ENCODING 228
SWIDTH 473 0
DWIDTH 9 0
BBX 7 12 1 0
BITMAP
84
84
00
3C
44
84
04
3C
C4
84
8C
76
ENDCHAR
STARTCHAR 00E5
ENCODING 229
SWIDTH 473 0
DWIDTH 9 0
BBX 7 14 1 0
BITMAP
38
48
48
30
00
3C
44
84
04
3C
C4
84
8C
76
ENDCHAR
STARTCHAR 00E6
ENCODING 230
SWIDTH 684 0
DWIDTH 13 0
BBX 11 9 1 0
BITMAP
39C0
4640
C420
0420
1FE0
6400
8400
8E20
73C0
ENDCHAR
STARTCHAR 00E7
ENCODING 231
SWIDTH 421 0
DWIDTH 8 0
BBX 7 13 1 -4
BITMAP
3C
44
80
80
80
80
80
62
3C
10
18
08
10
ENDCHAR
STARTCHAR 00E8
ENCODING 232
SWIDTH 473 0
DWIDTH 9 0
BBX 7 14 1 0
BITMAP
60
20
10
08
00
3C
44
82
82
FE
80
80
42
3C
ENDCHAR
STARTCHAR 00E9
ENCODING 233
SWIDTH 473 0
DWIDTH 9 0
BBX 7 14 1 0
BITMAP
04
0E
08
10
00
3C
44
82
82
FE
80
80
42
3C
ENDCHAR
STARTCHAR 00EA
ENCODING 234
SWIDTH 473 0
DWIDTH 9 0
BBX 7 14 1 0
BITMAP
18
38
24
42
00
3C
44
82
82
FE
80
80
42
3C
ENDCHAR
STARTCHAR 00EB
ENCODING 235
SWIDTH 473 0
DWIDTH 9 0
BBX 7 12 1 0
BITMAP
82
84
00
3C
44
82
82
FE
80
80
42
3C
ENDCHAR
STARTCHAR 00EC
ENCODING 236
SWIDTH 263 0
DWIDTH 5 0
BBX 4 14 0 0
BITMAP
C0
40
20
10
00
20
60
20
20
20
20
20
20
70
ENDCHAR
STARTCHAR 00ED
ENCODING 237
SWIDTH 263 0
DWIDTH 5 0
BBX 4 14 1 0
BITMAP
10
30
60
40
00
40
C0
40
40
40
40
40
40
E0
ENDCHAR
STARTCHAR 00EE
ENCODING 238
SWIDTH 263 0
DWIDTH 5 0
BBX 6 14 0 0
BITMAP
20
70
C8
84
00
20
60
20
20
20
20
20
20
70
ENDCHAR
STARTCHAR 00EF
ENCODING 239
SWIDTH 263 0
DWIDTH 5 0
BBX 6 12 -1 0
BITMAP
84
84
00
10
30
10
10
10
10
10
10
38
ENDCHAR
STARTCHAR 00F0
ENCODING 240
SWIDTH 473 0
DWIDTH 9 0
BBX 7 13 1 0
BITMAP
60
1E
38
44
3C
46
82
82
82
82
84
44
38
ENDCHAR
STARTCHAR 00F1
ENCODING 241
SWIDTH 526 0
DWIDTH 10 0
BBX 8 13 1 0
BITMAP
33
3A
4C
00
4C
D2
62
42
42
42
42
42
E7
ENDCHAR
STARTCHAR 00F2
ENCODING 242
SWIDTH 526 0
DWIDTH 10 0
BBX 8 14 1 0
BITMAP
60
30
10
08
00
3C
42
81
81
81
81
82
42
3C
ENDCHAR
STARTCHAR 00F3
ENCODING 243
SWIDTH 526 0
DWIDTH 10 0
BBX 8 14 1 0
BITMAP
06
0C
08
10
00
3C
42
81
81
81
81
82
42
3C
ENDCHAR
STARTCHAR 00F4
ENCODING 244
SWIDTH 526 0
DWIDTH 10 0
BBX 8 14 1 0
BITMAP
18
38
24
42
00
3C
42
81
81
81
81
82
42
3C
ENDCHAR
STARTCHAR 00F5
ENCODING 245
SWIDTH 526 0
DWIDTH 10 0
BBX 8 13 1 0
BITMAP
32
7A
4C
00
3C
42
81
81
81
81
82
42
3C
ENDCHAR
STARTCHAR 00F6
ENCODING 246
SWIDTH 526 0
DWIDTH 10 0
BBX 8 12 1 0
BITMAP
82
82
00
3C
42
81
81
81
81
82
42
3C
ENDCHAR
STARTCHAR 00F7
ENCODING 247
SWIDTH 421 0
DWIDTH 8 0
BBX 6 6 1 2
BITMAP
20
20
FC
00
20
20
ENDCHAR
STARTCHAR 00F8
ENCODING 248
SWIDTH 526 0
DWIDTH 10 0
BBX 8 9 1 0
BITMAP
1D
66
87
89
99
91
E2
62
FC
ENDCHAR
STARTCHAR 00F9
ENCODING 249
SWIDTH 526 0
DWIDTH 10 0
BBX 8 14 1 0
BITMAP
60
30
10
08
00
C6
42
42
42
42
42
42
46
3B
ENDCHAR
STARTCHAR 00FA
ENCODING 250
SWIDTH 526 0
DWIDTH 10 0
BBX 8 14 1 0
BITMAP
06
0C
08
10
00
C6
42
42
42
42
42
42
46
3B
ENDCHAR
STARTCHAR 00FB
ENCODING 251
SWIDTH 526 0
DWIDTH 10 0
BBX 8 14 1 0
BITMAP
18
1C
24
42
00
C6
42
42
42
42
42
42
46
3B
ENDCHAR
STARTCHAR 00FC
ENCODING 252
SWIDTH 526 0
DWIDTH 10 0
BBX 8 12 1 0
BITMAP
82
82
00
C6
42
42
42
42
42
42
46
3B
ENDCHAR
STARTCHAR 00FD
ENCODING 253
SWIDTH 473 0
DWIDTH 9 0
BBX 9 18 0 -4
BITMAP
0300
0600
0400
0800
0000
F380
6100
2100
3200
1200
1400
1C00
0C00
0800
0800
1000
B000
E000
ENDCHAR
STARTCHAR 00FE
ENCODING 254
SWIDTH 526 0
DWIDTH 10 0
BBX 8 18 1 -4
BITMAP
40
C0
40
40
40
4E
72
41
41
41
41
42
62
7C
40
40
40
F0
ENDCHAR
STARTCHAR 00FF
ENCODING 255
SWIDTH 473 0
DWIDTH 9 0
BBX 9 16 0 -4
BITMAP
4100
4100
0000
F380
6100
2100
3200
1200
1400
1C00
0C00
0800
0800
1000
B000
E000
ENDCHAR
STARTCHAR 0100
ENCODING 256
SWIDTH 578 0
DWIDTH 11 0
BBX 11 15 0 0
BITMAP
1F80
0000
0000
0400
0600
0E00
0A00
0B00
1100
1100
1F80
2180
2080
20C0
F1E0
ENDCHAR
STARTCHAR 0101
ENCODING 257
SWIDTH 473 0
DWIDTH 9 0
BBX 7 12 1 0
BITMAP
7E
80
00
3C
44
84
04
3C
C4
84
8C
76
ENDCHAR
STARTCHAR 0102
ENCODING 258
SWIDTH 578 0
DWIDTH 11 0
BBX 11 16 0 0
BITMAP
2080
1100
0E00
0000
0400
0600
0E00
0A00
0B00
1100
1100
1F80
2180
2080
20C0
F1E0
ENDCHAR
STARTCHAR 0103
ENCODING 259
SWIDTH 473 0
DWIDTH 9 0
BBX 7 13 1 0
BITMAP
84
44
38
00
3C
44
84
04
3C
C4
84
8C
76
ENDCHAR
STARTCHAR 0106
ENCODING 262
SWIDTH 526 0
DWIDTH 10 0
BBX 8 16 1 0
BITMAP
03
06
18
00
1E
63
80
80
80
80
80
80
80
C0
63
3C
ENDCHAR
STARTCHAR 0107
ENCODING 263
SWIDTH 421 0
DWIDTH 8 0
BBX 6 14 1 0
BITMAP
0C
08
18
10
00
3C
44
80
80
80
80
80
C4
78
ENDCHAR
STARTCHAR 0108
ENCODING 264
SWIDTH 526 0
DWIDTH 10 0
BBX 8 16 1 0
BITMAP
0C
16
22
01
1E
63
80
80
80
80
80
80
80
C0
63
3C
ENDCHAR
STARTCHAR 0109
ENCODING 265
SWIDTH 421 0
DWIDTH 8 0
BBX 6 14 1 0
BITMAP
10
38
64
44
00
3C
44
80
80
80
80
80
C4
78
ENDCHAR
STARTCHAR 010A
ENCODING 266
SWIDTH 526 0
DWIDTH 10 0
BBX 8 15 1 0
BITMAP
08
08
00
1E
63
80
80
80
80
80
80
80
C0
63
3C
ENDCHAR
STARTCHAR 010B
ENCODING 267
SWIDTH 421 0
DWIDTH 8 0
BBX 6 12 1 0
BITMAP
10
10
00
3C
44
80
80
80
80
80
C4
78
ENDCHAR
STARTCHAR 010C
ENCODING 268
SWIDTH 526 0
DWIDTH 10 0
BBX 8 16 1 0
BITMAP
21
16
0C
00
1E
63
80
80
80
80
80
80
80
C0
63
3C
ENDCHAR
STARTCHAR 010D
ENCODING 269
SWIDTH 421 0
DWIDTH 8 0
BBX 6 14 1 0
BITMAP
44
6C
38
10
00
3C
44
80
80
80
80
80
C4
78
ENDCHAR
STARTCHAR 010E
ENCODING 270
SWIDTH 578 0
DWIDTH 11 0
BBX 9 16 1 0
BITMAP
4200
3400
1800
0000
FC00
4300
4100
4080
4080
4080
4080
4080
4080
4100
4200
FC00
ENDCHAR
STARTCHAR 0110
ENCODING 272
SWIDTH 578 0
DWIDTH 11 0
BBX 10 12 0 0
BITMAP
7E00
2180
2080
2040
2040
7C40
A040
2040
2040
2080
2100
7E00
ENDCHAR
STARTCHAR 0111
ENCODING 273
SWIDTH 526 0
DWIDTH 10 0
BBX 9 14 1 0
BITMAP
0600
0200
0200
1F80
0200
3E00
4200
8200
8200
8200
8200
8200
4600
3B00
ENDCHAR
STARTCHAR 0112
ENCODING 274
SWIDTH 473 0
DWIDTH 9 0
BBX 8 15 1 0
BITMAP
7E
00
00
FE
42
40
40
40
7C
48
40
40
42
43
FE
ENDCHAR
STARTCHAR 0113
ENCODING 275
SWIDTH 473 0
DWIDTH 9 0
BBX 7 12 1 0
BITMAP
7E
00
00
3C
44
82
82
FE
80
80
42
3C
ENDCHAR
STARTCHAR 0114
ENCODING 276
SWIDTH 473 0
DWIDTH 9 0
BBX 8 16 1 0
BITMAP
82
44
38
00
FE
42
40
40
40
7C
48
40
40
42
43
FE
ENDCHAR
STARTCHAR 0115
ENCODING 277
SWIDTH 473 0
DWIDTH 9 0
BBX 7 13 1 0
BITMAP
82
44
38
00
3C
44
82
82
FE
80
80
42
3C
ENDCHAR
STARTCHAR 0116
ENCODING 278
SWIDTH 473 0
DWIDTH 9 0
BBX 8 15 1 0
BITMAP
10
10
00
FE
42
40
40
40
7C
48
40
40
42
43
FE
ENDCHAR
STARTCHAR 0117
ENCODING 279
SWIDTH 473 0
DWIDTH 9 0
BBX 7 12 1 0
BITMAP
10
10
00
3C
44
82
82
FE
80
80
42
3C
ENDCHAR
STARTCHAR 011A
ENCODING 282
SWIDTH 473 0
DWIDTH 9 0
BBX 8 16 1 0
BITMAP
42
2C
18
00
FE
42
40
40
40
7C
48
40
40
42
43
FE
ENDCHAR
STARTCHAR 011B
ENCODING 283
SWIDTH 473 0
DWIDTH 9 0
BBX 7 14 1 0
BITMAP
42
24
38
18
00
3C
44
82
82
FE
80
80
42
3C
ENDCHAR
STARTCHAR 011C
ENCODING 284
SWIDTH 578 0
DWIDTH 11 0
BBX 10 16 1 0
BITMAP
0C00
1600
2100
0000
0F00
3180
4000
8000
8000
8000
83C0
8080
8080
4080
6080
1F00
ENDCHAR
STARTCHAR 011D
ENCODING 285
SWIDTH 473 0
DWIDTH 9 0
BBX 10 18 0 -4
BITMAP
0800
1C00
3200
2100
0000
3EC0
4300
8100
8100
C200
3C00
3000
7800
2780
C080
8080
C100
3E00
ENDCHAR
STARTCHAR 011E
ENCODING 286
SWIDTH 578 0
DWIDTH 11 0
BBX 10 16 1 0
BITMAP
2100
2200
1E00
0000
0F00
3180
4000
8000
8000
8000
83C0
8080
8080
4080
6080
1F00
ENDCHAR
STARTCHAR 011F
ENCODING 287
SWIDTH 473 0
DWIDTH 9 0
BBX 10 17 0 -4
BITMAP
4100
2200
1C00
0000
3EC0
4300
8100
8100
C200
3C00
3000
7800
2780
C080
8080
C100
3E00
ENDCHAR
STARTCHAR 0120
ENCODING 288
SWIDTH 578 0
DWIDTH 11 0
BBX 10 15 1 0
BITMAP
0800
0800
0000
0F00
3180
4000
8000
8000
8000
83C0
8080
8080
4080
6080
1F00
ENDCHAR
STARTCHAR 0121
ENCODING 289
SWIDTH 473 0
DWIDTH 9 0
BBX 10 16 0 -4
BITMAP
0800
0800
0000
3EC0
4300
8100
8100
C200
3C00
3000
7800
2780
C080
8080
C100
3E00
ENDCHAR
STARTCHAR 0124
ENCODING 292
SWIDTH 631 0
DWIDTH 12 0
BBX 10 16 1 0
BITMAP
0C00
1A00
2100
0000
E1C0
4080
4080
4080
4080
7F80
4080
4080
4080
4080
4080
E1C0
ENDCHAR
STARTCHAR 0125
ENCODING 293
SWIDTH 526 0
DWIDTH 10 0
BBX 8 18 1 0
BITMAP
1C
26
42
00
40
C0
40
40
40
4C
52
62
42
42
42
42
42
E7
ENDCHAR
STARTCHAR 0128
ENCODING 296
SWIDTH 315 0
DWIDTH 6 0
BBX 6 15 0 0
BITMAP
64
98
00
70
20
20
20
20
20
20
20
20
20
20
70
ENDCHAR
STARTCHAR 0129
ENCODING 297
SWIDTH 263 0
DWIDTH 5 0
BBX 7 13 -1 0
BITMAP
32
74
9C
00
10
30
10
10
10
10
10
10
38
ENDCHAR
STARTCHAR 012A
ENCODING 298
SWIDTH 315 0
DWIDTH 6 0
BBX 5 15 0 0
BITMAP
78
80
00
70
20
20
20
20
20
20
20
20
20
20
70
ENDCHAR
STARTCHAR 012B
ENCODING 299
SWIDTH 263 0
DWIDTH 5 0
BBX 5 12 0 0
BITMAP
F8
00
00
20
60
20
20
20
20
20
20
70
ENDCHAR
STARTCHAR 012C
ENCODING 300
SWIDTH 315 0
DWIDTH 6 0
BBX 6 16 0 0
BITMAP
84
88
70
00
70
20
20
20
20
20
20
20
20
20
20
70
ENDCHAR
STARTCHAR 012D
ENCODING 301
SWIDTH 263 0
DWIDTH 5 0
BBX 6 13 0 0
BITMAP
84
88
70
00
20
60
20
20
20
20
20
20
70
ENDCHAR
STARTCHAR 0130
ENCODING 304
SWIDTH 315 0
DWIDTH 6 0
BBX 3 15 1 0
BITMAP
40
40
00
E0
40
40
40
40
40
40
40
40
40
40
E0
ENDCHAR
STARTCHAR 0131
ENCODING 305
SWIDTH 263 0
DWIDTH 5 0
BBX 3 9 1 0
BITMAP
40
C0
40
40
40
40
40
40
E0
ENDCHAR
STARTCHAR 0132
ENCODING 306
SWIDTH 578 0
DWIDTH 11 0
BBX 10 15 1 -3
BITMAP
E3C0
4080
4080
4080
4080
4080
4080
4080
4080
4080
4080
E080
0100
0900
0E00
ENDCHAR
STARTCHAR 0133
ENCODING 307
SWIDTH 526 0
DWIDTH 10 0
BBX 7 16 1 -4
BITMAP
C6
C6
00
42
C6
42
42
42
42
42
42
E2
02
02
04
38
ENDCHAR
STARTCHAR 0139
ENCODING 313
SWIDTH 473 0
DWIDTH 9 0
BBX 7 16 1 0
BITMAP
04
18
20
00
E0
40
40
40
40
40
40
40
40
42
42
FE
ENDCHAR
STARTCHAR 013A
ENCODING 314
SWIDTH 263 0
DWIDTH 5 0
BBX 5 19 1 0
BITMAP
10
38
C0
00
00
40
C0
40
40
40
40
40
40
40
40
40
40
40
E0
ENDCHAR
STARTCHAR 0141
ENCODING 321
SWIDTH 473 0
DWIDTH 9 0
BBX 7 12 1 0
BITMAP
E0
40
40
40
58
60
C0
C0
40
42
42
FE
ENDCHAR
STARTCHAR 0142
ENCODING 322
SWIDTH 263 0
DWIDTH 5 0
BBX 5 14 0 0
BITMAP
20
60
20
20
20
28
30
60
A0
20
20
20
20
70
ENDCHAR
STARTCHAR 0143
ENCODING 323
SWIDTH 631 0
DWIDTH 12 0
BBX 10 16 1 0
BITMAP
0300
0600
0800
0000
C1C0
6080
7080
5080
5880
4C80
4480
4680
4380
4180
4180
E080
ENDCHAR
STARTCHAR 0144
ENCODING 324
SWIDTH 526 0
DWIDTH 10 0
BBX 8 14 1 0
BITMAP
06
04
08
10
00
4C
D2
62
42
42
42
42
42
E7
ENDCHAR
STARTCHAR 0147
ENCODING 327
SWIDTH 631 0
DWIDTH 12 0
BBX 10 16 1 0
BITMAP
2100
1A00
0C00
0000
C1C0
6080
7080
5080
5880
4C80
4480
4680
4380
4180
4180
E080
ENDCHAR
STARTCHAR 0148
ENCODING 328
SWIDTH 526 0
DWIDTH 10 0
BBX 8 14 1 0
BITMAP
42
26
1C
08
00
4C
D2
62
42
42
42
42
42
E7
ENDCHAR
STARTCHAR 014A
ENCODING 330
SWIDTH 578 0
DWIDTH 11 0
BBX 9 15 1 -3
BITMAP
4700
C880
5080
6080
4080
4080
4080
4080
4080
4080
4080
E080
0100
1100
3E00
ENDCHAR
STARTCHAR 014B
ENCODING 331
SWIDTH 526 0
DWIDTH 10 0
BBX 8 13 1 -4
BITMAP
CE
51
61
41
41
41
41
41
E1
01
01
22
3C
ENDCHAR
STARTCHAR 014C
ENCODING 332
SWIDTH 578 0
DWIDTH 11 0
BBX 9 15 1 0
BITMAP
3F00
0000
0000
1E00
6300
8100
8080
8080
8080
8080
8080
8080
4100
6200
3C00
ENDCHAR
STARTCHAR 014D
ENCODING 333
SWIDTH 526 0
DWIDTH 10 0
BBX 8 12 1 0
BITMAP
7E
00
00
3C
42
81
81
81
81
82
42
3C
ENDCHAR
STARTCHAR 014E
ENCODING 334
SWIDTH 578 0
DWIDTH 11 0
BBX 9 16 1 0
BITMAP
4100
2200
1C00
0000
1E00
6300
8100
8080
8080
8080
8080
8080
8080
4100
6200
3C00
ENDCHAR
STARTCHAR 014F
ENCODING 335
SWIDTH 526 0
DWIDTH 10 0
BBX 8 13 1 0
BITMAP
42
64
3C
00
3C
42
81
81
81
81
82
42
3C
ENDCHAR
STARTCHAR 0150
ENCODING 336
SWIDTH 578 0
DWIDTH 11 0
BBX 9 17 1 0
BITMAP
0D00
0B00
1200
1400
0000
1E00
6300
8100
8080
8080
8080
8080
8080
8080
4100
6200
3C00
ENDCHAR
STARTCHAR 0151
ENCODING 337
SWIDTH 526 0
DWIDTH 10 0
BBX 8 14 1 0
BITMAP
1B
12
34
24
00
3C
42
81
81
81
81
82
42
3C
ENDCHAR
STARTCHAR 0152
ENCODING 338
SWIDTH 789 0
DWIDTH 15 0
BBX 13 12 1 0
BITMAP
1FF8
6108
8100
8100
8100
81F0
8120
8100
8100
4100
6108
3FF8
ENDCHAR
STARTCHAR 0153
ENCODING 339
SWIDTH 789 0
DWIDTH 15 0
BBX 13 9 1 0
BITMAP
38E0
4510
8608
8208
83F8
8200
8200
4518
39E0
ENDCHAR
STARTCHAR 0154
ENCODING 340
SWIDTH 578 0
DWIDTH 11 0
BBX 10 16 1 0
BITMAP
0600
0C00
3000
0000
FC00
4300
4100
4100
4100
4200
7C00
4C00
4600
4300
4300
E1C0
ENDCHAR
STARTCHAR 0155
ENCODING 341
SWIDTH 421 0
DWIDTH 8 0
BBX 6 14 1 0
BITMAP
0C
08
10
20
00
5C
E4
60
40
40
40
40
40
F0
ENDCHAR
STARTCHAR 0158
ENCODING 344
SWIDTH 578 0
DWIDTH 11 0
BBX 10 16 1 0
BITMAP
4200
2C00
1800
0000
FC00
4300
4100
4100
4100
4200
7C00
4C00
4600
4300
4300
E1C0
ENDCHAR
STARTCHAR 0159
ENCODING 345
SWIDTH 421 0
DWIDTH 8 0
BBX 6 14 1 0
BITMAP
84
48
38
30
00
5C
E4
60
40
40
40
40
40
F0
ENDCHAR
STARTCHAR 015A
ENCODING 346
SWIDTH 473 0
DWIDTH 9 0
BBX 7 16 1 0
BITMAP
04
0E
30
00
3C
C6
80
80
E0
38
0C
02
02
82
C4
F8
ENDCHAR
STARTCHAR 015B
ENCODING 347
SWIDTH 368 0
DWIDTH 7 0
BBX 5 14 1 0
BITMAP
08
18
30
20
00
70
88
80
C0
30
08
88
88
F0
ENDCHAR
STARTCHAR 015C
ENCODING 348
SWIDTH 473 0
DWIDTH 9 0
BBX 7 16 1 0
BITMAP
18
28
44
02
3C
C6
80
80
E0
38
0C
02
02
82
C4
F8
ENDCHAR
STARTCHAR 015D
ENCODING 349
SWIDTH 368 0
DWIDTH 7 0
BBX 6 14 1 0
BITMAP
30
70
C8
84
00
70
88
80
C0
30
08
88
88
F0
ENDCHAR
STARTCHAR 0160
ENCODING 352
SWIDTH 473 0
DWIDTH 9 0
BBX 7 16 1 0
BITMAP
46
2C
18
00
3C
C6
80
80
E0
38
0C
02
02
82
C4
F8
ENDCHAR
STARTCHAR 0161
ENCODING 353
SWIDTH 368 0
DWIDTH 7 0
BBX 6 14 1 0
BITMAP
84
C8
70
30
00
70
88
80
C0
30
08
88
88
F0
ENDCHAR
STARTCHAR 0164
ENCODING 356
SWIDTH 526 0
DWIDTH 10 0
BBX 9 16 1 0
BITMAP
4200
2400
1800
0000
FF80
8880
8880
0800
0800
0800
0800
0800
0800
0800
0800
3E00
ENDCHAR
STARTCHAR 0168
ENCODING 360
SWIDTH 631 0
DWIDTH 12 0
BBX 10 15 1 0
BITMAP
1D00
2600
0000
E1C0
4080
4080
4080
4080
4080
4080
4080
4080
4080
2100
1E00
ENDCHAR
STARTCHAR 0169
ENCODING 361
SWIDTH 526 0
DWIDTH 10 0
BBX 8 13 1 0
BITMAP
32
7A
4C
00
C6
42
42
42
42
42
42
46
3B
ENDCHAR
STARTCHAR 016A
ENCODING 362
SWIDTH 631 0
DWIDTH 12 0
BBX 10 15 1 0
BITMAP
3F80
0000
0000
E1C0
4080
4080
4080
4080
4080
4080
4080
4080
4080
2100
1E00
ENDCHAR
STARTCHAR 016B
ENCODING 363
SWIDTH 526 0
DWIDTH 10 0
BBX 8 12 1 0
BITMAP
7E
00
00
C6
42
42
42
42
42
42
46
3B
ENDCHAR
STARTCHAR 016C
ENCODING 364
SWIDTH 631 0
DWIDTH 12 0
BBX 10 16 1 0
BITMAP
2100
1100
0E00
0000
E1C0
4080
4080
4080
4080
4080
4080
4080
4080
4080
2100
1E00
ENDCHAR
STARTCHAR 016D
ENCODING 365
SWIDTH 526 0
DWIDTH 10 0
BBX 8 13 1 0
BITMAP
42
26
3C
00
C6
42
42
42
42
42
42
46
3B
ENDCHAR
STARTCHAR 016E
ENCODING 366
SWIDTH 631 0
DWIDTH 12 0
BBX 10 17 1 0
BITMAP
0E00
1200
1200
1C00
0000
E1C0
4080
4080
4080
4080
4080
4080
4080
4080
4080
2100
1E00
ENDCHAR
STARTCHAR 016F
ENCODING 367
SWIDTH 526 0
DWIDTH 10 0
BBX 8 14 1 0
BITMAP
18
24
24
38
00
C6
42
42
42
42
42
42
46
3B
ENDCHAR
STARTCHAR 0170
ENCODING 368
SWIDTH 631 0
DWIDTH 12 0
BBX 10 17 1 0
BITMAP
0580
0D00
0B00
1200
0000
E1C0
4080
4080
4080
4080
4080
4080
4080
4080
4080
2100
1E00
ENDCHAR
STARTCHAR 0171
ENCODING 369
SWIDTH 526 0
DWIDTH 10 0
BBX 8 14 1 0
BITMAP
1B
12
14
24
00
C6
42
42
42
42
42
42
46
3B
ENDCHAR
STARTCHAR 0174
ENCODING 372
SWIDTH 842 0
DWIDTH 16 0
BBX 16 16 0 0
BITMAP
0180
02C0
0420
0000
F10F
2184
2184
2184
32C4
3248
1268
1468
1C28
1C38
0830
0810
ENDCHAR
STARTCHAR 0175
ENCODING 373
SWIDTH 684 0
DWIDTH 13 0
BBX 13 14 0 0
BITMAP
0300
0700
0480
0840
0000
F238
6310
2310
2510
35A0
14A0
18E0
18C0
1840
ENDCHAR
STARTCHAR 0176
ENCODING 374
SWIDTH 578 0
DWIDTH 11 0
BBX 11 16 0 0
BITMAP
0600
0A00
1100
0080
E1E0
3080
3180
1900
0A00
0E00
0400
0400
0400
0400
0400
1F00
ENDCHAR
STARTCHAR 0177
ENCODING 375
SWIDTH 473 0
DWIDTH 9 0
BBX 9 18 0 -4
BITMAP
0C00
1C00
1200
2100
0000
F380
6100
2100
3200
1200
1400
1C00
0C00
0800
0800
1000
B000
E000
ENDCHAR
STARTCHAR 0178
ENCODING 376
SWIDTH 578 0
DWIDTH 11 0
BBX 11 15 0 0
BITMAP
2100
2100
0000
E1E0
3080
3180
1900
0A00
0E00
0400
0400
0400
0400
0400
1F00
ENDCHAR
STARTCHAR 0179
ENCODING 377
SWIDTH 526 0
DWIDTH 10 0
BBX 8 16 1 0
BITMAP
06
0C
10
20
FF
82
86
04
0C
18
10
30
60
41
C1
FF
ENDCHAR
STARTCHAR 017A
ENCODING 378
SWIDTH 421 0
DWIDTH 8 0
BBX 7 14 1 0
BITMAP
0C
08
10
10
00
FE
84
08
18
30
20
62
C2
FE
ENDCHAR
STARTCHAR 017B
ENCODING 379
SWIDTH 526 0
DWIDTH 10 0
BBX 8 15 1 0
BITMAP
08
10
00
FF
82
86
04
0C
18
10
30
60
41
C1
FF
ENDCHAR
STARTCHAR 017C
ENCODING 380
SWIDTH 421 0
DWIDTH 8 0
BBX 7 12 1 0
BITMAP
10
10
00
FE
84
08
18
30
20
62
C2
FE
ENDCHAR
STARTCHAR 017D
ENCODING 381
SWIDTH 526 0
DWIDTH 10 0
BBX 8 16 1 0
BITMAP
42
34
18
00
FF
82
86
04
0C
18
10
30
60
41
C1
FF
ENDCHAR
STARTCHAR 017E
ENCODING 382
SWIDTH 421 0
DWIDTH 8 0
BBX 7 14 1 0
BITMAP
84
6C
38
10
00
FE
84
08
18
30
20
62
C2
FE
ENDCHAR
STARTCHAR 0181
ENCODING 385
SWIDTH 631 0
DWIDTH 12 0
BBX 10 12 1 0
BITMAP
3F00
D180
9080
9080
1100
1F80
10C0
1040
1040
1040
10C0
3F80
ENDCHAR
STARTCHAR 0186
ENCODING 390
SWIDTH 526 0
DWIDTH 10 0
BBX 8 12 1 0
BITMAP
3C
C6
02
01
01
01
01
81
81
82
84
78
ENDCHAR
STARTCHAR 0189
ENCODING 393
SWIDTH 578 0
DWIDTH 11 0
BBX 10 12 0 0
BITMAP
7E00
2180
2080
2040
2040
7C40
A040
2040
2040
2080
2100
7E00
ENDCHAR
STARTCHAR 018A
ENCODING 394
SWIDTH 684 0
DWIDTH 13 0
BBX 11 12 1 0
BITMAP
3F00
D0C0
9040
9020
1020
1020
1020
1020
1020
1040
1080
3F00
ENDCHAR
STARTCHAR 018E
ENCODING 398
SWIDTH 473 0
DWIDTH 9 0
BBX 7 12 1 0
BITMAP
7E
84
84
04
04
7C
04
04
04
84
84
FE
ENDCHAR
STARTCHAR 0190
ENCODING 400
SWIDTH 526 0
DWIDTH 10 0
BBX 7 12 1 0
BITMAP
3E
C2
80
80
C0
78
60
80
80
80
82
7C
ENDCHAR
STARTCHAR 0192
ENCODING 402
SWIDTH 315 0
DWIDTH 6 0
BBX 9 18 -2 -4
BITMAP
0380
0480
0800
0800
0800
1F00
0800
0800
0800
0800
0800
0800
0800
0800
0800
0800
1000
E000
ENDCHAR
STARTCHAR 0197
ENCODING 407
SWIDTH 315 0
DWIDTH 6 0
BBX 5 12 0 0
BITMAP
70
20
20
20
20
78
A0
20
20
20
20
70
ENDCHAR
STARTCHAR 0198
ENCODING 408
SWIDTH 631 0
DWIDTH 12 0
BBX 10 12 1 0
BITMAP
E1C0
4240
4440
4880
5000
5000
7800
5C00
4E00
4600
4300
E1C0
ENDCHAR
STARTCHAR 0199
ENCODING 409
SWIDTH 526 0
DWIDTH 10 0
BBX 8 14 1 0
BITMAP
1E
26
40
40
40
4F
44
58
60
70
58
4C
46
E3
ENDCHAR
STARTCHAR 019A
ENCODING 410
SWIDTH 315 0
DWIDTH 6 0
BBX 5 14 1 0
BITMAP
60
20
20
20
20
20
F8
20
20
20
20
20
20
70
ENDCHAR
STARTCHAR 019D
ENCODING 413
SWIDTH 631 0
DWIDTH 12 0
BBX 13 15 -2 -3
BITMAP
1838
0C10
0E10
0A10
0B10
0990
0890
08D0
0870
0830
0830
0810
0800
9000
E000
ENDCHAR
STARTCHAR 019F
ENCODING 415
SWIDTH 578 0
DWIDTH 11 0
BBX 9 12 1 0
BITMAP
1E00
2300
4100
8080
8080
FF80
8080
8080
C080
4100
6200
3C00
ENDCHAR
STARTCHAR 01A0
ENCODING 416
SWIDTH 631 0
DWIDTH 12 0
BBX 10 14 1 0
BITMAP
0040
00C0
1E80
6300
8100
8080
8080
8080
8080
8080
8100
4100
6200
3C00
ENDCHAR
STARTCHAR 01A1
ENCODING 417
SWIDTH 578 0
DWIDTH 11 0
BBX 9 11 1 0
BITMAP
0080
0080
1E80
6300
8100
8100
8100
8100
8200
4200
3C00
ENDCHAR
STARTCHAR 01A9
ENCODING 425
SWIDTH 526 0
DWIDTH 10 0
BBX 8 12 1 0
BITMAP
FF
41
61
30
10
18
18
30
20
41
C1
FF
ENDCHAR
STARTCHAR 01AA
ENCODING 426
SWIDTH 368 0
DWIDTH 7 0
BBX 9 18 0 -4
BITMAP
7000
9000
8800
F800
0800
0800
0800
0800
0800
0800
0800
0800
0800
0800
0800
0880
0900
0600
ENDCHAR
STARTCHAR 01AF
ENCODING 431
SWIDTH 684 0
DWIDTH 13 0
BBX 12 14 1 0
BITMAP
0020
0070
E1E0
4080
4080
4080
4080
4080
4080
4080
4080
4080
2100
1E00
ENDCHAR
STARTCHAR 01B0
ENCODING 432
SWIDTH 631 0
DWIDTH 12 0
BBX 10 11 1 0
BITMAP
0040
00C0
4680
C300
4200
4200
4200
4200
4200
4600
3B80
ENDCHAR
STARTCHAR 01B3
ENCODING 435
SWIDTH 684 0
DWIDTH 13 0
BBX 14 12 0 0
BITMAP
E038
3064
30C4
1988
0B00
0E00
0400
0400
0400
0400
0400
1F00
ENDCHAR
STARTCHAR 01B4
ENCODING 436
SWIDTH 473 0
DWIDTH 9 0
BBX 13 16 0 -4
BITMAP
0038
0040
0080
F100
6100
2100
3200
1200
1400
1C00
0C00
0800
0800
1000
1000
E000
ENDCHAR
STARTCHAR 01B7
ENCODING 439
SWIDTH 526 0
DWIDTH 10 0
BBX 7 12 2 0
BITMAP
FE
84
8C
18
10
3C
46
02
02
82
C2
7C
ENDCHAR
STARTCHAR 01CD
ENCODING 461
SWIDTH 578 0
DWIDTH 11 0
BBX 11 16 0 0
BITMAP
1100
0A00
0600
0000
0400
0600
0E00
0A00
0B00
1100
1100
1F80
2180
2080
20C0
F1E0
ENDCHAR
STARTCHAR 01CE
ENCODING 462
SWIDTH 473 0
DWIDTH 9 0
BBX 7 14 1 0
BITMAP
84
6C
38
10
00
3C
44
84
04
3C
C4
84
8C
76
ENDCHAR
STARTCHAR 01CF
ENCODING 463
SWIDTH 315 0
DWIDTH 6 0
BBX 6 16 0 0
BITMAP
84
58
30
00
70
20
20
20
20
20
20
20
20
20
20
70
ENDCHAR
STARTCHAR 01D0
ENCODING 464
SWIDTH 263 0
DWIDTH 5 0
BBX 6 14 0 0
BITMAP
84
C8
70
20
00
20
60
20
20
20
20
20
20
70
ENDCHAR
STARTCHAR 01D1
ENCODING 465
SWIDTH 578 0
DWIDTH 11 0
BBX 9 17 1 0
BITMAP
2100
3200
1C00
0C00
0000
1E00
6300
8100
8080
8080
8080
8080
8080
8080
4100
6200
3C00
ENDCHAR
STARTCHAR 01D2
ENCODING 466
SWIDTH 526 0
DWIDTH 10 0
BBX 8 14 1 0
BITMAP
42
24
38
18
00
3C
42
81
81
81
81
82
42
3C
ENDCHAR
STARTCHAR 01D3
ENCODING 467
SWIDTH 631 0
DWIDTH 12 0
BBX 10 16 1 0
BITMAP
2100
1A00
0C00
0000
E1C0
4080
4080
4080
4080
4080
4080
4080
4080
4080
2100
1E00
ENDCHAR
STARTCHAR 01D4
ENCODING 468
SWIDTH 526 0
DWIDTH 10 0
BBX 8 14 1 0
BITMAP
42
24
1C
18
00
C6
42
42
42
42
42
42
46
3B
ENDCHAR
STARTCHAR 01D5
ENCODING 469
SWIDTH 631 0
DWIDTH 12 0
BBX 10 18 1 0
BITMAP
3F80
0000
0000
2100
2100
0000
E1C0
4080
4080
4080
4080
4080
4080
4080
4080
4080
2100
1E00
ENDCHAR
STARTCHAR 01D6
ENCODING 470
SWIDTH 526 0
DWIDTH 10 0
BBX 8 15 1 0
BITMAP
7E
00
00
82
82
00
C6
42
42
42
42
42
42
46
3B
ENDCHAR
STARTCHAR 01D7
ENCODING 471
SWIDTH 631 0
DWIDTH 12 0
BBX 10 19 1 0
BITMAP
0100
0600
0800
0000
2100
2100
0000
E1C0
4080
4080
4080
4080
4080
4080
4080
4080
4080
2100
1E00
ENDCHAR
STARTCHAR 01D8
ENCODING 472
SWIDTH 526 0
DWIDTH 10 0
BBX 8 17 1 0
BITMAP
06
0C
08
10
00
82
82
00
C6
42
42
42
42
42
42
46
3B
ENDCHAR
STARTCHAR 01D9
ENCODING 473
SWIDTH 631 0
DWIDTH 12 0
BBX 10 19 1 0
BITMAP
2100
1A00
0C00
0000
2100
2100
0000
E1C0
4080
4080
4080
4080
4080
4080
4080
4080
4080
2100
1E00
ENDCHAR
STARTCHAR 01DA
ENCODING 474
SWIDTH 526 0
DWIDTH 10 0
BBX 8 17 1 0
BITMAP
42
34
18
18
00
82
82
00
C6
42
42
42
42
42
42
46
3B
ENDCHAR
STARTCHAR 01DB
ENCODING 475
SWIDTH 631 0
DWIDTH 12 0
BBX 10 19 1 0
BITMAP
3000
1800
0600
0000
2100
2100
0000
E1C0
4080
4080
4080
4080
4080
4080
4080
4080
4080
2100
1E00
ENDCHAR
STARTCHAR 01DC
ENCODING 476
SWIDTH 526 0
DWIDTH 10 0
BBX 8 17 1 0
BITMAP
60
10
18
08
00
82
82
00
C6
42
42
42
42
42
42
46
3B
ENDCHAR
STARTCHAR 01DD
ENCODING 477
SWIDTH 473 0
DWIDTH 9 0
BBX 7 9 1 0
BITMAP
78
84
06
02
02
FE
82
84
78
ENDCHAR
STARTCHAR 01DE
ENCODING 478
SWIDTH 578 0
DWIDTH 11 0
BBX 11 18 0 0
BITMAP
1F80
0000
0000
2100
2100
0000
0400
0600
0E00
0A00
0B00
1100
1100
1F80
2180
2080
20C0
F1E0
ENDCHAR
STARTCHAR 01DF
ENCODING 479
SWIDTH 473 0
DWIDTH 9 0
BBX 7 15 1 0
BITMAP
FE
00
00
84
84
00
3C
44
84
04
3C
C4
84
8C
76
ENDCHAR
STARTCHAR 01E0
ENCODING 480
SWIDTH 578 0
DWIDTH 11 0
BBX 11 18 0 0
BITMAP
1F80
0000
0000
0400
0400
0000
0400
0600
0E00
0A00
0B00
1100
1100
1F80
2180
2080
20C0
F1E0
ENDCHAR
STARTCHAR 01E1
ENCODING 481
SWIDTH 473 0
DWIDTH 9 0
BBX 7 15 1 0
BITMAP
FE
00
00
10
10
00
3C
44
84
04
3C
C4
84
8C
76
ENDCHAR
STARTCHAR 01E2
ENCODING 482
SWIDTH 789 0
DWIDTH 15 0
BBX 14 15 0 0
BITMAP
03F0
0000
0000
1FF8
0508
0500
0900
0900
1FF0
1120
1100
2100
2108
610C
F3F8
ENDCHAR
STARTCHAR 01E3
ENCODING 483
SWIDTH 684 0
DWIDTH 13 0
BBX 11 12 1 0
BITMAP
1F80
0000
0000
39C0
4640
C420
0420
1FE0
6400
8400
8E20
73C0
ENDCHAR
STARTCHAR 01E6
ENCODING 486
SWIDTH 578 0
DWIDTH 11 0
BBX 10 16 1 0
BITMAP
2100
1200
0C00
0000
0F00
3180
4000
8000
8000
8000
83C0
8080
8080
4080
6080
1F00
ENDCHAR
STARTCHAR 01E7
ENCODING 487
SWIDTH 473 0
DWIDTH 9 0
BBX 10 18 0 -4
BITMAP
2100
3200
1C00
0800
0000
3EC0
4300
8100
8100
C200
3C00
3000
7800
2780
C080
8080
C100
3E00
ENDCHAR
STARTCHAR 01E8
ENCODING 488
SWIDTH 578 0
DWIDTH 11 0
BBX 10 16 1 0
BITMAP
2200
1400
1800
0000
E780
4200
4400
4800
5000
6000
5000
5800
4C00
4600
4300
E1C0
ENDCHAR
STARTCHAR 01E9
ENCODING 489
SWIDTH 526 0
DWIDTH 10 0
BBX 8 18 1 0
BITMAP
42
3C
18
00
40
C0
40
40
40
4F
44
48
70
70
58
4C
46
E7
ENDCHAR
STARTCHAR 01EE
ENCODING 494
SWIDTH 526 0
DWIDTH 10 0
BBX 7 17 2 0
BITMAP
84
48
78
30
00
FE
84
8C
18
10
3C
46
02
02
82
C2
7C
ENDCHAR
STARTCHAR 01EF
ENCODING 495
SWIDTH 473 0
DWIDTH 9 0
BBX 7 17 1 -4
BITMAP
84
68
30
00
7E
44
08
18
10
3C
46
02
02
02
02
C4
78
ENDCHAR
STARTCHAR 01F4
ENCODING 500
SWIDTH 578 0
DWIDTH 11 0
BBX 10 16 1 0
BITMAP
0300
0600
1800
0000
0F00
3180
4000
8000
8000
8000
83C0
8080
8080
4080
6080
1F00
ENDCHAR
STARTCHAR 01F5
ENCODING 501
SWIDTH 473 0
DWIDTH 9 0
BBX 10 18 0 -4
BITMAP
0200
0600
0C00
0800
0000
3EC0
4300
8100
8100
C200
3C00
3000
7800
2780
C080
8080
C100
3E00
ENDCHAR
STARTCHAR 01F8
ENCODING 504
SWIDTH 631 0
DWIDTH 12 0
BBX 10 16 1 0
BITMAP
3000
1800
0600
0000
C1C0
6080
7080
5080
5880
4C80
4480
4680
4380
4180
4180
E080
ENDCHAR
STARTCHAR 01F9
ENCODING 505
SWIDTH 526 0
DWIDTH 10 0
BBX 8 14 1 0
BITMAP
20
30
18
08
00
4C
D2
62
42
42
42
42
42
E7
ENDCHAR
STARTCHAR 01FA
ENCODING 506
SWIDTH 578 0
DWIDTH 11 0
BBX 11 20 0 0
BITMAP
0180
0600
0800
0E00
1200
1200
0C00
0000
0400
0600
0E00
0A00
0B00
1100
1100
1F80
2180
2080
20C0
F1E0
ENDCHAR
STARTCHAR 01FB
ENCODING 507
SWIDTH 473 0
DWIDTH 9 0
BBX 7 18 1 0
BITMAP
0C
08
10
20
38
48
48
30
00
3C
44
84
04
3C
C4
84
8C
76
ENDCHAR
STARTCHAR 01FC
ENCODING 508
SWIDTH 789 0
DWIDTH 15 0
BBX 14 16 0 0
BITMAP
0020
0070
0180
0000
1FF8
0508
0500
0900
0900
1FF0
1120
1100
2100
2108
610C
F3F8
ENDCHAR
STARTCHAR 01FD
ENCODING 509
SWIDTH 684 0
DWIDTH 13 0
BBX 11 14 1 0
BITMAP
0180
0300
0200
0400
0000
39C0
4640
C420
0420
1FE0
6400
8400
8E20
73C0
ENDCHAR
STARTCHAR 01FE
ENCODING 510
SWIDTH 578 0
DWIDTH 11 0
BBX 9 16 1 0
BITMAP
0200
0700
1800
0000
1E80
2300
4300
8380
8480
8880
8880
9080
E100
6100
6200
BC00
ENDCHAR
STARTCHAR 01FF
ENCODING 511
SWIDTH 526 0
DWIDTH 10 0
BBX 8 14 1 0
BITMAP
06
0C
08
10
00
1D
66
87
89
99
91
E2
62
FC
ENDCHAR
STARTCHAR 021E
ENCODING 542
SWIDTH 631 0
DWIDTH 12 0
BBX 10 16 1 0
BITMAP
2100
1A00
0C00
0000
E1C0
4080
4080
4080
4080
7F80
4080
4080
4080
4080
4080
E1C0
ENDCHAR
STARTCHAR 021F
ENCODING 543
SWIDTH 526 0
DWIDTH 10 0
BBX 8 18 1 0
BITMAP
62
14
08
00
40
C0
40
40
40
4C
52
62
42
42
42
42
42
E7
ENDCHAR
STARTCHAR 0226
ENCODING 550
SWIDTH 578 0
DWIDTH 11 0
BBX 11 15 0 0
BITMAP
0400
0400
0000
0400
0600
0E00
0A00
0B00
1100
1100
1F80
2180
2080
20C0
F1E0
ENDCHAR
STARTCHAR 0227
ENCODING 551
SWIDTH 473 0
DWIDTH 9 0
BBX 7 12 1 0
BITMAP
10
10
00
3C
44
84
04
3C
C4
84
8C
76
ENDCHAR
STARTCHAR 0228
ENCODING 552
SWIDTH 473 0
DWIDTH 9 0
BBX 8 16 1 -4
BITMAP
FE
42
40
40
40
7C
48
40
40
41
41
FF
10
18
08
30
ENDCHAR
STARTCHAR 0229
ENCODING 553
SWIDTH 473 0
DWIDTH 9 0
BBX 7 13 1 -4
BITMAP
3C
44
82
82
FE
80
80
42
3C
10
18
08
10
ENDCHAR
STARTCHAR 022A
ENCODING 554
SWIDTH 578 0
DWIDTH 11 0
BBX 9 18 1 0
BITMAP
3F00
0000
0000
4200
4200
0000
1E00
6300
8100
8080
8080
8080
8080
8080
8080
4100
6200
3C00
ENDCHAR
STARTCHAR 022B
ENCODING 555
SWIDTH 526 0
DWIDTH 10 0
BBX 8 15 1 0
BITMAP
7E
00
00
82
82
00
3C
42
81
81
81
81
82
42
3C
ENDCHAR
STARTCHAR 022C
ENCODING 556
SWIDTH 578 0
DWIDTH 11 0
BBX 9 18 1 0
BITMAP
3F00
0000
0000
1900
6E00
0000
1E00
6300
8100
8080
8080
8080
8080
8080
8080
4100
6200
3C00
ENDCHAR
STARTCHAR 022D
ENCODING 557
SWIDTH 526 0
DWIDTH 10 0
BBX 8 15 1 0
BITMAP
7E
00
32
7A
4C
00
3C
42
81
81
81
81
82
42
3C
ENDCHAR
STARTCHAR 022E
ENCODING 558
SWIDTH 578 0
DWIDTH 11 0
BBX 9 15 1 0
BITMAP
0800
0800
0000
1E00
6300
8100
8080
8080
8080
8080
8080
8080
4100
6200
3C00
ENDCHAR
STARTCHAR 022F
ENCODING 559
SWIDTH 526 0
DWIDTH 10 0
BBX 8 12 1 0
BITMAP
10
10
00
3C
42
81
81
81
81
82
42
3C
ENDCHAR
STARTCHAR 0230
ENCODING 560
SWIDTH 578 0
DWIDTH 11 0
BBX 9 18 1 0
BITMAP
3F00
0000
0000
0800
0800
0000
1E00
6300
8100
8080
8080
8080
8080
8080
8080
4100
6200
3C00
ENDCHAR
STARTCHAR 0231
ENCODING 561
SWIDTH 526 0
DWIDTH 10 0
BBX 8 15 1 0
BITMAP
7E
00
00
10
10
00
3C
42
81
81
81
81
82
42
3C
ENDCHAR
STARTCHAR 0232
ENCODING 562
SWIDTH 578 0
DWIDTH 11 0
BBX 11 15 0 0
BITMAP
1F80
0000
0000
E1E0
3080
3180
1900
0A00
0E00
0400
0400
0400
0400
0400
1F00
ENDCHAR
STARTCHAR 0233
ENCODING 563
SWIDTH 473 0
DWIDTH 9 0
BBX 9 16 0 -4
BITMAP
3F00
0000
0000
F380
6100
2100
3200
1200
1400
1C00
0C00
0800
0800
1000
B000
E000
ENDCHAR
STARTCHAR 0237
ENCODING 567
SWIDTH 263 0
DWIDTH 5 0
BBX 5 13 -2 -4
BITMAP
08
18
08
08
08
08
08
08
08
08
08
10
E0
ENDCHAR
STARTCHAR 023D
ENCODING 573
SWIDTH 473 0
DWIDTH 9 0
BBX 7 12 1 0
BITMAP
E0
40
40
40
40
40
F0
40
40
42
42
FE
ENDCHAR
STARTCHAR 0241
ENCODING 577
SWIDTH 473 0
DWIDTH 9 0
BBX 7 12 1 0
BITMAP
3C
C2
82
82
02
04
18
10
10
10
10
7C
ENDCHAR
STARTCHAR 0242
ENCODING 578
SWIDTH 421 0
DWIDTH 8 0
BBX 6 9 1 0
BITMAP
38
C4
84
04
18
20
20
20
F8
ENDCHAR
STARTCHAR 0244
ENCODING 580
SWIDTH 631 0
DWIDTH 12 0
BBX 10 12 1 0
BITMAP
E1C0
4080
4080
4080
4080
FFC0
4080
4080
4080
4080
2100
1E00
ENDCHAR
STARTCHAR 0245
ENCODING 581
SWIDTH 631 0
DWIDTH 12 0
BBX 12 12 0 0
BITMAP
0600
0600
0600
0B00
0900
0980
1180
1080
30C0
2040
2040
F0F0
ENDCHAR
STARTCHAR 024A
ENCODING 586
SWIDTH 578 0
DWIDTH 11 0
BBX 12 16 1 -4
BITMAP
0E80
3180
4080
8080
8080
8080
8080
8080
8080
4180
6280
1C80
0080
0090
0090
00E0
ENDCHAR
STARTCHAR 024B
ENCODING 587
SWIDTH 526 0
DWIDTH 10 0
BBX 11 13 1 -4
BITMAP
3E00
4200
8200
8200
8200
8200
8200
4600
3A00
0200
0220
0220
01C0
ENDCHAR
STARTCHAR 0251
ENCODING 593
SWIDTH 473 0
DWIDTH 9 0
BBX 7 9 1 0
BITMAP
3C
44
84
84
84
84
84
4C
76
ENDCHAR
STARTCHAR 0253
ENCODING 595
SWIDTH 526 0
DWIDTH 10 0
BBX 8 14 1 0
BITMAP
3C
4C
80
80
80
9C
A2
C1
81
81
81
82
C2
7C
ENDCHAR
STARTCHAR 0254
ENCODING 596
SWIDTH 473 0
DWIDTH 9 0
BBX 7 9 1 0
BITMAP
78
84
02
02
02
82
82
84
78
ENDCHAR
STARTCHAR 0256
ENCODING 598
SWIDTH 526 0
DWIDTH 10 0
BBX 12 18 1 -4
BITMAP
0300
0100
0100
0100
0100
1F00
6300
8100
8100
8100
8100
8100
4300
3D00
0100
0110
0120
01C0
ENDCHAR
STARTCHAR 0257
ENCODING 599
SWIDTH 526 0
DWIDTH 10 0
BBX 11 14 1 0
BITMAP
01C0
0260
0200
0200
0200
3E00
4200
8200
8200
8200
8200
8200
4600
3B00
ENDCHAR
STARTCHAR 0259
ENCODING 601
SWIDTH 473 0
DWIDTH 9 0
BBX 7 9 1 0
BITMAP
78
84
06
02
02
FE
82
84
78
ENDCHAR
STARTCHAR 025B
ENCODING 603
SWIDTH 421 0
DWIDTH 8 0
BBX 6 9 1 0
BITMAP
7C
84
80
C0
70
C0
80
84
F8
ENDCHAR
STARTCHAR 0263
ENCODING 611
SWIDTH 473 0
DWIDTH 9 0
BBX 8 13 0 -4
BITMAP
E7
42
66
24
34
18
18
18
1C
24
24
24
18
ENDCHAR
STARTCHAR 0268
ENCODING 616
SWIDTH 263 0
DWIDTH 5 0
BBX 5 12 0 0
BITMAP
60
60
00
20
60
20
20
78
A0
20
20
70
ENDCHAR
STARTCHAR 0269
ENCODING 617
SWIDTH 263 0
DWIDTH 5 0
BBX 4 9 1 0
BITMAP
40
C0
40
40
40
40
40
50
60
ENDCHAR
STARTCHAR 026B
ENCODING 619
SWIDTH 315 0
DWIDTH 6 0
BBX 5 14 1 0
BITMAP
20
60
20
20
20
20
68
B0
20
20
20
20
20
70
ENDCHAR
STARTCHAR 0272
ENCODING 626
SWIDTH 526 0
DWIDTH 10 0
BBX 11 13 -2 -4
BITMAP
0980
1A40
0C40
0840
0840
0840
0840
0840
08E0
0800
0800
9000
E000
ENDCHAR
STARTCHAR 0275
ENCODING 629
SWIDTH 526 0
DWIDTH 10 0
BBX 8 9 1 0
BITMAP
3C
42
83
81
FF
81
C2
62
3C
ENDCHAR
STARTCHAR 0283
ENCODING 643
SWIDTH 210 0
DWIDTH 4 0
BBX 9 18 -3 -4
BITMAP
0380
0D00
0800
0800
0800
0800
0800
0800
0C00
0400
0400
0400
0400
0400
0400
0400
0800
F000
ENDCHAR
STARTCHAR 0289
ENCODING 649
SWIDTH 526 0
DWIDTH 10 0
BBX 8 9 1 0
BITMAP
46
C2
42
42
FF
42
42
46
3B
ENDCHAR
STARTCHAR 028A
ENCODING 650
SWIDTH 473 0
DWIDTH 9 0
BBX 7 9 1 0
BITMAP
C6
4C
82
82
82
82
82
44
38
ENDCHAR
STARTCHAR 028C
ENCODING 652
SWIDTH 473 0
DWIDTH 9 0
BBX 9 9 0 0
BITMAP
0800
0C00
1400
1400
2600
2200
2300
4300
E380
ENDCHAR
STARTCHAR 0292
ENCODING 658
SWIDTH 473 0
DWIDTH 9 0
BBX 7 13 1 -4
BITMAP
7E
44
08
18
10
3C
46
02
02
02
02
C4
78
ENDCHAR
STARTCHAR 0294
ENCODING 660
SWIDTH 473 0
DWIDTH 9 0
BBX 7 14 1 0
BITMAP
3C
46
82
82
02
04
08
10
10
10
10
10
10
7C
ENDCHAR
STARTCHAR 02A0
ENCODING 672
SWIDTH 526 0
DWIDTH 10 0
BBX 12 18 1 -4
BITMAP
00E0
0130
0100
0100
0100
1F00
6300
8100
8100
8100
8100
8100
4700
3900
0100
0100
0100
0780
ENDCHAR
STARTCHAR 02BC
ENCODING 700
SWIDTH 210 0
DWIDTH 4 0
BBX 2 4 1 10
BITMAP
C0
40
40
80
ENDCHAR
STARTCHAR 02C0
ENCODING 704
SWIDTH 368 0
DWIDTH 7 0
BBX 6 7 0 8
BITMAP
38
C4
84
08
10
20
20
ENDCHAR
STARTCHAR 02C6
ENCODING 710
SWIDTH 368 0
DWIDTH 7 0
BBX 6 4 0 10
BITMAP
10
38
4C
84
ENDCHAR
STARTCHAR 02C7
ENCODING 711
SWIDTH 368 0
DWIDTH 7 0
BBX 6 4 0 10
BITMAP
84
6C
38
10
ENDCHAR
STARTCHAR 02C9
ENCODING 713
SWIDTH 473 0
DWIDTH 9 0
BBX 6 1 2 11
BITMAP
FC
ENDCHAR
STARTCHAR 02CA
ENCODING 714
SWIDTH 210 0
DWIDTH 4 0
BBX 4 4 0 10
BITMAP
30
60
40
80
ENDCHAR
STARTCHAR 02CB
ENCODING 715
SWIDTH 210 0
DWIDTH 4 0
BBX 4 4 0 10
BITMAP
C0
40
20
10
ENDCHAR
STARTCHAR 02CD
ENCODING 717
SWIDTH 473 0
DWIDTH 9 0
BBX 6 1 2 -2
BITMAP
FC
ENDCHAR
STARTCHAR 02D7
ENCODING 727
SWIDTH 315 0
DWIDTH 6 0
BBX 5 1 1 4
BITMAP
F8
ENDCHAR
STARTCHAR 02D8
ENCODING 728
SWIDTH 368 0
DWIDTH 7 0
BBX 6 3 0 10
BITMAP
84
44
38
ENDCHAR
STARTCHAR 02D9
ENCODING 729
SWIDTH 210 0
DWIDTH 4 0
BBX 1 2 1 10
BITMAP
80
80
ENDCHAR
STARTCHAR 02DA
ENCODING 730
SWIDTH 263 0
DWIDTH 5 0
BBX 3 4 1 10
BITMAP
60
A0
A0
C0
ENDCHAR
STARTCHAR 02DB
ENCODING 731
SWIDTH 263 0
DWIDTH 5 0
BBX 3 4 1 -4
BITMAP
60
80
A0
C0
ENDCHAR
STARTCHAR 02DC
ENCODING 732
SWIDTH 421 0
DWIDTH 8 0
BBX 6 3 1 10
BITMAP
64
F8
98
ENDCHAR
STARTCHAR 02DD
ENCODING 733
SWIDTH 368 0
DWIDTH 7 0
BBX 5 4 1 10
BITMAP
68
58
90
A0
ENDCHAR
STARTCHAR 0300
ENCODING 768
SWIDTH 0 0
DWIDTH 0 0
BBX 4 4 -7 10
BITMAP
C0
60
20
10
ENDCHAR
STARTCHAR 0301
ENCODING 769
SWIDTH 0 0
DWIDTH 0 0
BBX 4 4 -6 10
BITMAP
30
60
40
80
ENDCHAR
STARTCHAR 0302
ENCODING 770
SWIDTH 0 0
DWIDTH 0 0
BBX 6 4 -8 10
BITMAP
30
38
48
84
ENDCHAR
STARTCHAR 0303
ENCODING 771
SWIDTH 0 0
DWIDTH 0 0
BBX 6 3 -8 10
BITMAP
64
74
98
ENDCHAR
STARTCHAR 0304
ENCODING 772
SWIDTH 0 0
DWIDTH 0 0
BBX 6 1 -8 11
BITMAP
FC
ENDCHAR
STARTCHAR 0306
ENCODING 774
SWIDTH 0 0
DWIDTH 0 0
BBX 6 3 -8 10
BITMAP
84
44
38
ENDCHAR
STARTCHAR 0307
ENCODING 775
SWIDTH 0 0
DWIDTH 0 0
BBX 1 2 -5 10
BITMAP
80
80
ENDCHAR
STARTCHAR 0308
ENCODING 776
SWIDTH 0 0
DWIDTH 0 0
BBX 6 2 -8 10
BITMAP
84
84
ENDCHAR
STARTCHAR 0309
ENCODING 777
SWIDTH 0 0
DWIDTH 0 0
BBX 3 4 -6 10
BITMAP
60
A0
40
40
ENDCHAR
STARTCHAR 030A
ENCODING 778
SWIDTH 0 0
DWIDTH 0 0
BBX 4 4 -7 10
BITMAP
70
90
90
E0
ENDCHAR
STARTCHAR 030B
ENCODING 779
SWIDTH 0 0
DWIDTH 0 0
BBX 6 4 -7 10
BITMAP
2C
68
48
90
ENDCHAR
STARTCHAR 030C
ENCODING 780
SWIDTH 0 0
DWIDTH 0 0
BBX 6 4 -8 10
BITMAP
84
48
38
30
ENDCHAR
STARTCHAR 031B
ENCODING 795
SWIDTH 52 0
DWIDTH 1 0
BBX 3 4 -3 7
BITMAP
20
20
20
C0
ENDCHAR
STARTCHAR 0323
ENCODING 803
SWIDTH 0 0
DWIDTH 0 0
BBX 1 2 -5 -4
BITMAP
80
80
ENDCHAR
STARTCHAR 0327
ENCODING 807
SWIDTH 0 0
DWIDTH 0 0
BBX 2 4 -5 -4
BITMAP
C0
C0
40
80
ENDCHAR
STARTCHAR 0328
ENCODING 808
SWIDTH 0 0
DWIDTH 0 0
BBX 3 4 -6 -4
BITMAP
60
80
A0
C0
ENDCHAR
STARTCHAR 0331
ENCODING 817
SWIDTH 0 0
DWIDTH 0 0
BBX 6 1 -8 -3
BITMAP
FC
ENDCHAR
STARTCHAR 033F
ENCODING 831
SWIDTH 0 0
DWIDTH 0 0
BBX 11 4 -10 11
BITMAP
7FE0
8000
0000
FFE0
ENDCHAR
STARTCHAR 035E
ENCODING 862
SWIDTH 0 0
DWIDTH 0 0
BBX 12 1 -6 15
BITMAP
FFF0
ENDCHAR
STARTCHAR 035F
ENCODING 863
SWIDTH 0 0
DWIDTH 0 0
BBX 12 1 -6 -7
BITMAP
FFF0
ENDCHAR
STARTCHAR 03A0
ENCODING 928
SWIDTH 631 0
DWIDTH 12 0
BBX 10 12 1 0
BITMAP
FFC0
4080
4080
4080
4080
4080
4080
4080
4080
4080
4080
E1C0
ENDCHAR
STARTCHAR 03A9
ENCODING 937
SWIDTH 631 0
DWIDTH 12 0
BBX 10 12 1 0
BITMAP
1F00
2180
4080
8040
8040
8040
8040
8040
4080
C140
A240
E3C0
ENDCHAR
STARTCHAR 03C0
ENCODING 960
SWIDTH 526 0
DWIDTH 10 0
BBX 10 9 0 0
BITMAP
7FC0
9200
1200
1200
1200
1200
3200
3200
61C0
ENDCHAR
STARTCHAR 1E02
ENCODING 7682
SWIDTH 526 0
DWIDTH 10 0
BBX 8 15 1 0
BITMAP
10
10
00
FC
42
42
42
44
7E
43
41
41
41
43
FE
ENDCHAR
STARTCHAR 1E03
ENCODING 7683
SWIDTH 526 0
DWIDTH 10 0
BBX 9 14 0 0
BITMAP
4000
C000
4400
4400
4000
4600
5900
6080
4080
4080
4080
4100
6100
3E00
ENDCHAR
STARTCHAR 1E04
ENCODING 7684
SWIDTH 526 0
DWIDTH 10 0
BBX 8 16 1 -4
BITMAP
FC
42
42
42
44
7E
43
41
41
41
43
FE
00
00
10
10
ENDCHAR
STARTCHAR 1E05
ENCODING 7685
SWIDTH 526 0
DWIDTH 10 0
BBX 9 18 0 -4
BITMAP
4000
C000
4000
4000
4000
4600
5900
6080
4080
4080
4080
4100
6100
3E00
0000
0000
0800
0800
ENDCHAR
STARTCHAR 1E06
ENCODING 7686
SWIDTH 526 0
DWIDTH 10 0
BBX 8 15 1 -3
BITMAP
FC
42
42
42
44
7E
43
41
41
41
43
FE
00
00
7E
ENDCHAR
STARTCHAR 1E07
ENCODING 7687
SWIDTH 526 0
DWIDTH 10 0
BBX 9 17 0 -3
BITMAP
4000
C000
4000
4000
4000
4600
5900
6080
4080
4080
4080
4100
6100
3E00
0000
0000
7F00
ENDCHAR
STARTCHAR 1E08
ENCODING 7688
SWIDTH 526 0
DWIDTH 10 0
BBX 9 20 1 -4
BITMAP
0200
0700
0800
1000
1E00
6300
8000
8000
8000
8000
8000
8000
8000
4100
6180
3E00
0800
0C00
0400
0800
ENDCHAR
STARTCHAR 1E09
ENCODING 7689
SWIDTH 421 0
DWIDTH 8 0
BBX 7 18 1 -4
BITMAP
04
0C
18
10
00
3C
44
80
80
80
80
80
62
3C
10
18
08
10
ENDCHAR
STARTCHAR 1E0A
ENCODING 7690
SWIDTH 578 0
DWIDTH 11 0
BBX 9 15 1 0
BITMAP
1000
1800
0000
FC00
4300
4100
4080
4080
4080
4080
4080
4080
4100
4200
FC00
ENDCHAR
STARTCHAR 1E0B
ENCODING 7691
SWIDTH 526 0
DWIDTH 10 0
BBX 8 14 1 0
BITMAP
06
02
22
42
02
3E
42
82
82
82
82
82
46
3B
ENDCHAR
STARTCHAR 1E0C
ENCODING 7692
SWIDTH 578 0
DWIDTH 11 0
BBX 9 16 1 -4
BITMAP
FC00
4300
4100
4080
4080
4080
4080
4080
4080
4100
4200
FC00
0000
0000
1000
1800
ENDCHAR
STARTCHAR 1E0D
ENCODING 7693
SWIDTH 526 0
DWIDTH 10 0
BBX 8 18 1 -4
BITMAP
06
02
02
02
02
3E
42
82
82
82
82
82
46
3B
00
00
10
10
ENDCHAR
STARTCHAR 1E0E
ENCODING 7694
SWIDTH 578 0
DWIDTH 11 0
BBX 9 15 1 -3
BITMAP
FC00
4300
4100
4080
4080
4080
4080
4080
4080
4100
4200
FC00
0000
0000
7E00
ENDCHAR
STARTCHAR 1E0F
ENCODING 7695
SWIDTH 526 0
DWIDTH 10 0
BBX 8 17 1 -3
BITMAP
06
02
02
02
02
3E
42
82
82
82
82
82
46
3B
00
00
7E
ENDCHAR
STARTCHAR 1E14
ENCODING 7700
SWIDTH 473 0
DWIDTH 9 0
BBX 8 19 1 0
BITMAP
40
30
08
00
7E
00
00
FE
42
40
40
40
7C
48
40
40
42
43
FE
ENDCHAR
STARTCHAR 1E15
ENCODING 7701
SWIDTH 473 0
DWIDTH 9 0
BBX 7 17 1 0
BITMAP
60
30
10
08
00
7E
00
00
3C
44
82
82
FE
80
80
42
3C
ENDCHAR
STARTCHAR 1E16
ENCODING 7702
SWIDTH 473 0
DWIDTH 9 0
BBX 8 19 1 0
BITMAP
04
0E
30
00
7E
00
00
FE
42
40
40
40
7C
48
40
40
42
43
FE
ENDCHAR
STARTCHAR 1E17
ENCODING 7703
SWIDTH 473 0
DWIDTH 9 0
BBX 7 17 1 0
BITMAP
0E
08
10
20
00
7E
00
00
3C
44
82
82
FE
80
80
42
3C
ENDCHAR
STARTCHAR 1E1C
ENCODING 7708
SWIDTH 473 0
DWIDTH 9 0
BBX 8 20 1 -4
BITMAP
82
44
38
00
FE
42
40
40
40
7C
48
40
40
41
41
FF
10
18
08
30
ENDCHAR
STARTCHAR 1E1D
ENCODING 7709
SWIDTH 473 0
DWIDTH 9 0
BBX 7 17 1 -4
BITMAP
82
44
38
00
3C
44
82
82
FE
80
80
42
3C
10
18
08
10
ENDCHAR
STARTCHAR 1E1E
ENCODING 7710
SWIDTH 473 0
DWIDTH 9 0
BBX 7 15 1 0
BITMAP
10
10
00
FE
42
40
40
40
7C
48
40
40
40
40
F0
ENDCHAR
STARTCHAR 1E1F
ENCODING 7711
SWIDTH 315 0
DWIDTH 6 0
BBX 6 17 1 0
BITMAP
20
20
00
1C
24
40
40
40
F8
40
40
40
40
40
40
40
F0
ENDCHAR
STARTCHAR 1E20
ENCODING 7712
SWIDTH 578 0
DWIDTH 11 0
BBX 10 15 1 0
BITMAP
3F00
0000
0000
0F00
3180
4000
8000
8000
8000
83C0
8080
8080
4080
6080
1F00
ENDCHAR
STARTCHAR 1E21
ENCODING 7713
SWIDTH 473 0
DWIDTH 9 0
BBX 10 16 0 -4
BITMAP
3F00
0000
0000
3EC0
4300
8100
8100
C200
3C00
3000
7800
2780
C080
8080
C100
3E00
ENDCHAR
STARTCHAR 1E22
ENCODING 7714
SWIDTH 631 0
DWIDTH 12 0
BBX 10 15 1 0
BITMAP
0400
0800
0000
E1C0
4080
4080
4080
4080
7F80
4080
4080
4080
4080
4080
E1C0
ENDCHAR
STARTCHAR 1E23
ENCODING 7715
SWIDTH 526 0
DWIDTH 10 0
BBX 8 17 1 0
BITMAP
08
08
00
40
C0
40
40
40
4C
52
62
42
42
42
42
42
E7
ENDCHAR
STARTCHAR 1E24
ENCODING 7716
SWIDTH 631 0
DWIDTH 12 0
BBX 10 16 1 -4
BITMAP
E1C0
4080
4080
4080
4080
7F80
4080
4080
4080
4080
4080
E1C0
0000
0000
0400
0800
ENDCHAR
STARTCHAR 1E25
ENCODING 7717
SWIDTH 526 0
DWIDTH 10 0
BBX 8 18 1 -4
BITMAP
40
C0
40
40
40
4C
52
62
42
42
42
42
42
E7
00
00
08
08
ENDCHAR
STARTCHAR 1E26
ENCODING 7718
SWIDTH 631 0
DWIDTH 12 0
BBX 10 15 1 0
BITMAP
2100
4100
0000
E1C0
4080
4080
4080
4080
7F80
4080
4080
4080
4080
4080
E1C0
ENDCHAR
STARTCHAR 1E27
ENCODING 7719
SWIDTH 526 0
DWIDTH 10 0
BBX 8 17 1 0
BITMAP
42
42
00
40
C0
40
40
40
4C
52
62
42
42
42
42
42
E7
ENDCHAR
STARTCHAR 1E2E
ENCODING 7726
SWIDTH 315 0
DWIDTH 6 0
BBX 6 19 0 0
BITMAP
0C
18
60
00
84
88
00
70
20
20
20
20
20
20
20
20
20
20
70
ENDCHAR
STARTCHAR 1E2F
ENCODING 7727
SWIDTH 263 0
DWIDTH 5 0
BBX 6 17 -1 0
BITMAP
0C
08
10
20
00
84
84
00
10
30
10
10
10
10
10
10
38
ENDCHAR
STARTCHAR 1E30
ENCODING 7728
SWIDTH 578 0
DWIDTH 11 0
BBX 10 16 1 0
BITMAP
0200
0F00
1000
0000
E780
4200
4400
4800
5000
6000
5000
5800
4C00
4600
4300
E1C0
ENDCHAR
STARTCHAR 1E31
ENCODING 7729
SWIDTH 526 0
DWIDTH 10 0
BBX 8 18 1 0
BITMAP
06
18
20
00
40
C0
40
40
40
4F
44
48
70
70
58
4C
46
E7
ENDCHAR
STARTCHAR 1E32
ENCODING 7730
SWIDTH 578 0
DWIDTH 11 0
BBX 10 16 1 -4
BITMAP
E780
4200
4400
4800
5000
6000
5000
5800
4C00
4600
4300
E1C0
0000
0000
0800
0800
ENDCHAR
STARTCHAR 1E33
ENCODING 7731
SWIDTH 526 0
DWIDTH 10 0
BBX 8 18 1 -4
BITMAP
40
C0
40
40
40
4F
44
48
70
70
58
4C
46
E7
00
00
10
10
ENDCHAR
STARTCHAR 1E34
ENCODING 7732
SWIDTH 578 0
DWIDTH 11 0
BBX 10 15 1 -3
BITMAP
E780
4200
4400
4800
5000
6000
5000
5800
4C00
4600
4300
E1C0
0000
0000
3F00
ENDCHAR
STARTCHAR 1E35
ENCODING 7733
SWIDTH 526 0
DWIDTH 10 0
BBX 8 17 1 -3
BITMAP
40
C0
40
40
40
4F
44
48
70
70
58
4C
46
E7
00
00
7E
ENDCHAR
STARTCHAR 1E36
ENCODING 7734
SWIDTH 473 0
DWIDTH 9 0
BBX 7 16 1 -4
BITMAP
E0
40
40
40
40
40
40
40
40
42
42
FE
00
00
10
10
ENDCHAR
STARTCHAR 1E37
ENCODING 7735
SWIDTH 263 0
DWIDTH 5 0
BBX 3 18 1 -4
BITMAP
40
C0
40
40
40
40
40
40
40
40
40
40
40
E0
00
00
40
40
ENDCHAR
STARTCHAR 1E38
ENCODING 7736
SWIDTH 473 0
DWIDTH 9 0
BBX 7 19 1 -4
BITMAP
FE
00
00
E0
40
40
40
40
40
40
40
40
42
42
FE
00
00
10
10
ENDCHAR
STARTCHAR 1E39
ENCODING 7737
SWIDTH 263 0
DWIDTH 5 0
BBX 6 22 0 -4
BITMAP
FC
00
00
00
20
60
20
20
20
20
20
20
20
20
20
20
20
70
00
00
20
20
ENDCHAR
STARTCHAR 1E3A
ENCODING 7738
SWIDTH 473 0
DWIDTH 9 0
BBX 7 15 1 -3
BITMAP
E0
40
40
40
40
40
40
40
40
42
42
FE
00
00
FE
ENDCHAR
STARTCHAR 1E3B
ENCODING 7739
SWIDTH 263 0
DWIDTH 5 0
BBX 6 17 0 -3
BITMAP
20
60
20
20
20
20
20
20
20
20
20
20
20
70
00
00
FC
ENDCHAR
STARTCHAR 1E3E
ENCODING 7742
SWIDTH 789 0
DWIDTH 15 0
BBX 14 16 1 0
BITMAP
0080
03C0
0400
0000
E038
6030
7070
5050
5050
5890
4890
4D10
4510
4710
4210
E27C
ENDCHAR
STARTCHAR 1E3F
ENCODING 7743
SWIDTH 789 0
DWIDTH 15 0
BBX 13 14 1 0
BITMAP
00C0
0180
0100
0200
0000
CC60
5290
6310
4210
4210
4210
4210
4210
E738
ENDCHAR
STARTCHAR 1E40
ENCODING 7744
SWIDTH 789 0
DWIDTH 15 0
BBX 14 15 1 0
BITMAP
0200
0200
0000
E038
6030
7070
5050
5050
5890
4890
4D10
4510
4710
4210
E27C
ENDCHAR
STARTCHAR 1E41
ENCODING 7745
SWIDTH 789 0
DWIDTH 15 0
BBX 13 12 1 0
BITMAP
0200
0200
0000
CC60
5290
6310
4210
4210
4210
4210
4210
E738
ENDCHAR
STARTCHAR 1E42
ENCODING 7746
SWIDTH 789 0
DWIDTH 15 0
BBX 14 16 1 -4
BITMAP
E038
6030
7070
5050
5050
5890
4890
4D10
4510
4710
4210
E238
0044
0000
0200
0200
ENDCHAR
STARTCHAR 1E43
ENCODING 7747
SWIDTH 789 0
DWIDTH 15 0
BBX 13 13 1 -4
BITMAP
CC60
5290
6310
4210
4210
4210
4210
4210
E738
0000
0000
0200
0200
ENDCHAR
STARTCHAR 1E44
ENCODING 7748
SWIDTH 631 0
DWIDTH 12 0
BBX 10 15 1 0
BITMAP
0400
0800
0000
C1C0
6080
7080
5080
5880
4C80
4480
4680
4380
4180
4180
E080
ENDCHAR
STARTCHAR 1E45
ENCODING 7749
SWIDTH 526 0
DWIDTH 10 0
BBX 8 12 1 0
BITMAP
08
08
00
4C
D2
62
42
42
42
42
42
E7
ENDCHAR
STARTCHAR 1E46
ENCODING 7750
SWIDTH 631 0
DWIDTH 12 0
BBX 10 16 1 -4
BITMAP
C1C0
6080
7080
5080
5880
4C80
4480
4680
4380
4180
4180
E080
0000
0000
0400
0400
ENDCHAR
STARTCHAR 1E47
ENCODING 7751
SWIDTH 526 0
DWIDTH 10 0
BBX 8 13 1 -4
BITMAP
4C
D2
62
42
42
42
42
42
E7
00
00
08
08
ENDCHAR
STARTCHAR 1E48
ENCODING 7752
SWIDTH 631 0
DWIDTH 12 0
BBX 10 15 1 -3
BITMAP
C1C0
6080
7080
5080
5880
4C80
4480
4680
4380
4180
4180
E080
0000
0000
3F00
ENDCHAR
STARTCHAR 1E49
ENCODING 7753
SWIDTH 526 0
DWIDTH 10 0
BBX 8 12 1 -3
BITMAP
4C
D2
62
42
42
42
42
42
E7
00
00
7E
ENDCHAR
STARTCHAR 1E4C
ENCODING 7756
SWIDTH 578 0
DWIDTH 11 0
BBX 9 19 1 0
BITMAP
0300
0600
1800
0000
1900
6E00
0000
1E00
6300
8100
8080
8080
8080
8080
8080
8080
4100
6200
3C00
ENDCHAR
STARTCHAR 1E4D
ENCODING 7757
SWIDTH 526 0
DWIDTH 10 0
BBX 8 17 1 0
BITMAP
06
0C
08
10
32
7A
4C
00
3C
42
81
81
81
81
82
42
3C
ENDCHAR
STARTCHAR 1E4E
ENCODING 7758
SWIDTH 578 0
DWIDTH 11 0
BBX 9 18 1 0
BITMAP
4200
4200
0000
1900
6E00
0000
1E00
6300
8100
8080
8080
8080
8080
8080
8080
4100
6200
3C00
ENDCHAR
STARTCHAR 1E4F
ENCODING 7759
SWIDTH 526 0
DWIDTH 10 0
BBX 8 15 1 0
BITMAP
82
82
32
7A
4C
00
3C
42
81
81
81
81
82
42
3C
ENDCHAR
STARTCHAR 1E50
ENCODING 7760
SWIDTH 578 0
DWIDTH 11 0
BBX 9 19 1 0
BITMAP
2000
1800
0400
0000
3F00
0000
0000
1E00
6300
8100
8080
8080
8080
8080
8080
8080
4100
6200
3C00
ENDCHAR
STARTCHAR 1E51
ENCODING 7761
SWIDTH 526 0
DWIDTH 10 0
BBX 8 17 1 0
BITMAP
60
30
18
08
00
7E
00
00
3C
42
81
81
81
81
82
42
3C
ENDCHAR
STARTCHAR 1E52
ENCODING 7762
SWIDTH 578 0
DWIDTH 11 0
BBX 9 19 1 0
BITMAP
0300
0600
1800
0000
3F00
0000
0000
1E00
6300
8100
8080
8080
8080
8080
8080
8080
4100
6200
3C00
ENDCHAR
STARTCHAR 1E53
ENCODING 7763
SWIDTH 526 0
DWIDTH 10 0
BBX 8 17 1 0
BITMAP
06
0C
08
10
00
7E
00
00
3C
42
81
81
81
81
82
42
3C
ENDCHAR
STARTCHAR 1E54
ENCODING 7764
SWIDTH 526 0
DWIDTH 10 0
BBX 8 16 1 0
BITMAP
06
0C
30
00
FC
42
41
41
41
42
5C
40
40
40
40
F0
ENDCHAR
STARTCHAR 1E55
ENCODING 7765
SWIDTH 526 0
DWIDTH 10 0
BBX 8 18 1 -4
BITMAP
06
0C
08
10
00
CE
72
41
41
41
41
42
62
5C
40
40
40
F0
ENDCHAR
STARTCHAR 1E56
ENCODING 7766
SWIDTH 526 0
DWIDTH 10 0
BBX 8 15 1 0
BITMAP
10
10
00
FC
42
41
41
41
42
5C
40
40
40
40
F0
ENDCHAR
STARTCHAR 1E57
ENCODING 7767
SWIDTH 526 0
DWIDTH 10 0
BBX 8 16 1 -4
BITMAP
10
10
00
CE
72
41
41
41
41
42
62
5C
40
40
40
F0
ENDCHAR
STARTCHAR 1E58
ENCODING 7768
SWIDTH 578 0
DWIDTH 11 0
BBX 10 15 1 0
BITMAP
1000
1000
0000
FC00
4300
4100
4100
4100
4200
7C00
4C00
4600
4300
4300
E1C0
ENDCHAR
STARTCHAR 1E59
ENCODING 7769
SWIDTH 421 0
DWIDTH 8 0
BBX 6 12 1 0
BITMAP
10
10
00
5C
E4
60
40
40
40
40
40
F0
ENDCHAR
STARTCHAR 1E5A
ENCODING 7770
SWIDTH 578 0
DWIDTH 11 0
BBX 10 16 1 -4
BITMAP
FC00
4300
4100
4100
4100
4200
7C00
4C00
4600
4300
4300
E1C0
0000
0000
1000
1000
ENDCHAR
STARTCHAR 1E5B
ENCODING 7771
SWIDTH 421 0
DWIDTH 8 0
BBX 6 13 1 -4
BITMAP
5C
E4
60
40
40
40
40
40
E0
10
00
40
40
ENDCHAR
STARTCHAR 1E5C
ENCODING 7772
SWIDTH 578 0
DWIDTH 11 0
BBX 10 19 1 -4
BITMAP
7E00
0000
0000
FC00
4300
4100
4100
4100
4200
7C00
4C00
4600
4300
4300
E1C0
0000
0000
1000
1000
ENDCHAR
STARTCHAR 1E5D
ENCODING 7773
SWIDTH 421 0
DWIDTH 8 0
BBX 6 16 1 -4
BITMAP
FC
00
00
5C
E4
60
40
40
40
40
40
E0
10
00
40
40
ENDCHAR
STARTCHAR 1E5E
ENCODING 7774
SWIDTH 578 0
DWIDTH 11 0
BBX 10 15 1 -3
BITMAP
FC00
4300
4100
4100
4100
4200
7C00
4C00
4600
4300
4300
E1C0
0000
0000
7E00
ENDCHAR
STARTCHAR 1E5F
ENCODING 7775
SWIDTH 421 0
DWIDTH 8 0
BBX 8 12 -1 -3
BITMAP
17
39
18
10
10
10
10
10
38
04
00
FE
ENDCHAR
STARTCHAR 1E60
ENCODING 7776
SWIDTH 473 0
DWIDTH 9 0
BBX 7 15 1 0
BITMAP
10
10
00
3C
C6
80
80
E0
38
0C
02
02
82
C4
F8
ENDCHAR
STARTCHAR 1E61
ENCODING 7777
SWIDTH 368 0
DWIDTH 7 0
BBX 5 12 1 0
BITMAP
20
20
00
70
88
80
C0
30
08
88
88
F0
ENDCHAR
STARTCHAR 1E62
ENCODING 7778
SWIDTH 473 0
DWIDTH 9 0
BBX 7 16 1 -4
BITMAP
3C
C6
80
80
E0
38
0C
02
02
82
C4
F8
00
00
10
10
ENDCHAR
STARTCHAR 1E63
ENCODING 7779
SWIDTH 368 0
DWIDTH 7 0
BBX 5 13 1 -4
BITMAP
70
88
80
C0
30
08
88
88
F0
00
00
20
20
ENDCHAR
STARTCHAR 1E64
ENCODING 7780
SWIDTH 473 0
DWIDTH 9 0
BBX 7 18 1 0
BITMAP
10
10
04
0E
30
00
3C
C6
80
80
E0
38
0C
02
02
82
C4
F8
ENDCHAR
STARTCHAR 1E65
ENCODING 7781
SWIDTH 368 0
DWIDTH 7 0
BBX 5 15 1 0
BITMAP
20
28
18
30
20
00
70
88
80
C0
30
08
88
88
F0
ENDCHAR
STARTCHAR 1E66
ENCODING 7782
SWIDTH 473 0
DWIDTH 9 0
BBX 7 18 1 0
BITMAP
10
10
46
2C
18
00
3C
C6
80
80
E0
38
0C
02
02
82
C4
F8
ENDCHAR
STARTCHAR 1E67
ENCODING 7783
SWIDTH 368 0
DWIDTH 7 0
BBX 6 15 1 0
BITMAP
20
A4
C8
70
30
00
70
88
80
C0
30
08
88
88
F0
ENDCHAR
STARTCHAR 1E68
ENCODING 7784
SWIDTH 473 0
DWIDTH 9 0
BBX 7 19 1 -4
BITMAP
10
10
00
3C
C6
80
80
E0
38
0C
02
02
82
C4
F8
00
00
10
10
ENDCHAR
STARTCHAR 1E69
ENCODING 7785
SWIDTH 368 0
DWIDTH 7 0
BBX 5 16 1 -4
BITMAP
20
20
00
70
88
80
C0
30
08
88
88
F0
00
00
20
20
ENDCHAR
STARTCHAR 1E6A
ENCODING 7786
SWIDTH 526 0
DWIDTH 10 0
BBX 9 15 1 0
BITMAP
1000
1000
0000
FF80
8880
8880
0800
0800
0800
0800
0800
0800
0800
0800
3E00
ENDCHAR
STARTCHAR 1E6B
ENCODING 7787
SWIDTH 368 0
DWIDTH 7 0
BBX 5 15 1 0
BITMAP
40
20
40
40
40
40
F8
40
40
40
40
40
40
48
70
ENDCHAR
STARTCHAR 1E6C
ENCODING 7788
SWIDTH 526 0
DWIDTH 10 0
BBX 9 16 1 -4
BITMAP
FF80
8880
8880
0800
0800
0800
0800
0800
0800
0800
0800
1C00
2200
0000
1000
1000
ENDCHAR
STARTCHAR 1E6D
ENCODING 7789
SWIDTH 368 0
DWIDTH 7 0
BBX 5 16 1 -4
BITMAP
40
40
40
F8
40
40
40
40
40
40
48
70
00
00
20
20
ENDCHAR
STARTCHAR 1E6E
ENCODING 7790
SWIDTH 526 0
DWIDTH 10 0
BBX 9 15 1 -3
BITMAP
FF80
8880
8880
0800
0800
0800
0800
0800
0800
0800
0800
1C00
2200
0000
7E00
ENDCHAR
STARTCHAR 1E6F
ENCODING 7791
SWIDTH 368 0
DWIDTH 7 0
BBX 6 15 0 -3
BITMAP
20
20
20
7C
20
20
20
20
20
20
24
38
00
00
FC
ENDCHAR
STARTCHAR 1E78
ENCODING 7800
SWIDTH 631 0
DWIDTH 12 0
BBX 10 19 1 0
BITMAP
0100
0600
0800
0000
1D00
2600
0000
E1C0
4080
4080
4080
4080
4080
4080
4080
4080
4080
2100
1E00
ENDCHAR
STARTCHAR 1E79
ENCODING 7801
SWIDTH 526 0
DWIDTH 10 0
BBX 8 17 1 0
BITMAP
06
0C
08
10
32
7A
4C
00
C6
42
42
42
42
42
42
46
3B
ENDCHAR
STARTCHAR 1E7A
ENCODING 7802
SWIDTH 631 0
DWIDTH 12 0
BBX 10 18 1 0
BITMAP
2100
2100
0000
3F80
0000
0000
E1C0
4080
4080
4080
4080
4080
4080
4080
4080
4080
2100
1E00
ENDCHAR
STARTCHAR 1E7B
ENCODING 7803
SWIDTH 526 0
DWIDTH 10 0
BBX 8 15 1 0
BITMAP
82
82
00
7E
00
00
C6
42
42
42
42
42
42
46
3B
ENDCHAR
STARTCHAR 1E7C
ENCODING 7804
SWIDTH 631 0
DWIDTH 12 0
BBX 12 15 0 0
BITMAP
0C80
1300
0000
F0F0
2040
3040
3040
1080
1880
0980
0900
0D00
0700
0600
0600
ENDCHAR
STARTCHAR 1E7D
ENCODING 7805
SWIDTH 473 0
DWIDTH 9 0
BBX 9 13 0 0
BITMAP
1900
3D00
2600
0000
F380
6100
2100
3200
1200
1200
1C00
0C00
0800
ENDCHAR
STARTCHAR 1E7E
ENCODING 7806
SWIDTH 631 0
DWIDTH 12 0
BBX 12 16 0 -4
BITMAP
F0F0
2040
3040
3040
1080
1880
0980
0900
0D00
0700
0600
0600
0000
0000
0400
0400
ENDCHAR
STARTCHAR 1E7F
ENCODING 7807
SWIDTH 473 0
DWIDTH 9 0
BBX 9 13 0 -4
BITMAP
F380
6100
2100
3200
1200
1200
1C00
0C00
0800
0000
0000
0800
0800
ENDCHAR
STARTCHAR 1E80
ENCODING 7808
SWIDTH 842 0
DWIDTH 16 0
BBX 16 16 0 0
BITMAP
0600
0300
0080
0040
F10F
2184
2184
2184
32C4
3248
1268
1468
1C28
1C38
0830
0810
ENDCHAR
STARTCHAR 1E81
ENCODING 7809
SWIDTH 684 0
DWIDTH 13 0
BBX 13 14 0 0
BITMAP
0C00
0600
0200
0100
0000
F238
6310
2310
2510
35A0
14A0
18E0
18C0
1840
ENDCHAR
STARTCHAR 1E82
ENCODING 7810
SWIDTH 842 0
DWIDTH 16 0
BBX 16 16 0 0
BITMAP
0060
00C0
0100
0200
F10F
2184
2184
2184
32C4
3248
1268
1468
1C28
1C38
0830
0810
ENDCHAR
STARTCHAR 1E83
ENCODING 7811
SWIDTH 684 0
DWIDTH 13 0
BBX 13 14 0 0
BITMAP
00C0
0180
0100
0200
0000
F238
6310
2310
2510
35A0
14A0
18E0
18C0
1840
ENDCHAR
STARTCHAR 1E84
ENCODING 7812
SWIDTH 842 0
DWIDTH 16 0
BBX 16 15 0 0
BITMAP
0820
0820
0000
F10F
2184
2184
2184
32C4
3248
1268
1468
1C28
1C38
0830
0810
ENDCHAR
STARTCHAR 1E85
ENCODING 7813
SWIDTH 684 0
DWIDTH 13 0
BBX 13 12 0 0
BITMAP
1040
1040
0000
F238
6310
2310
2510
35A0
14A0
18E0
18C0
1840
ENDCHAR
STARTCHAR 1E86
ENCODING 7814
SWIDTH 842 0
DWIDTH 16 0
BBX 16 15 0 0
BITMAP
0100
0100
0000
F10F
2184
2184
2184
32C4
3248
1268
1468
1C28
1C38
0830
0810
ENDCHAR
STARTCHAR 1E87
ENCODING 7815
SWIDTH 684 0
DWIDTH 13 0
BBX 13 12 0 0
BITMAP
0200
0200
0000
F238
6310
2310
2510
35A0
14A0
18E0
18C0
1840
ENDCHAR
STARTCHAR 1E88
ENCODING 7816
SWIDTH 842 0
DWIDTH 16 0
BBX 16 16 0 -4
BITMAP
F10F
2184
2184
2184
32C4
3248
1268
1468
1C28
1C38
0830
0810
0000
0000
0100
0100
ENDCHAR
STARTCHAR 1E89
ENCODING 7817
SWIDTH 684 0
DWIDTH 13 0
BBX 13 13 0 -4
BITMAP
F238
6310
2310
2510
35A0
14A0
18E0
18C0
1840
0000
0000
0200
0200
ENDCHAR
STARTCHAR 1E8A
ENCODING 7818
SWIDTH 631 0
DWIDTH 12 0
BBX 11 15 0 0
BITMAP
0400
0400
0000
F9E0
2080
3180
1900
0E00
0600
0600
0B00
1980
3080
20C0
F1E0
ENDCHAR
STARTCHAR 1E8B
ENCODING 7819
SWIDTH 526 0
DWIDTH 10 0
BBX 9 12 0 0
BITMAP
0800
0800
0000
F380
2100
3200
1C00
0C00
1600
2200
2100
F380
ENDCHAR
STARTCHAR 1E8C
ENCODING 7820
SWIDTH 631 0
DWIDTH 12 0
BBX 11 15 0 0
BITMAP
2080
2080
0000
F9E0
2080
3180
1900
0E00
0600
0600
0B00
1980
3080
20C0
F1E0
ENDCHAR
STARTCHAR 1E8D
ENCODING 7821
SWIDTH 526 0
DWIDTH 10 0
BBX 9 12 0 0
BITMAP
4100
4100
0000
F380
2100
3200
1C00
0C00
1600
2200
2100
F380
ENDCHAR
STARTCHAR 1E8E
ENCODING 7822
SWIDTH 578 0
DWIDTH 11 0
BBX 11 15 0 0
BITMAP
0400
0400
0000
E1E0
3080
3180
1900
0A00
0E00
0400
0400
0400
0400
0400
1F00
ENDCHAR
STARTCHAR 1E8F
ENCODING 7823
SWIDTH 473 0
DWIDTH 9 0
BBX 9 16 0 -4
BITMAP
0800
0800
0000
F380
6100
2100
3200
1200
1400
1C00
0C00
0800
0800
1000
B000
E000
ENDCHAR
STARTCHAR 1E90
ENCODING 7824
SWIDTH 526 0
DWIDTH 10 0
BBX 8 16 1 0
BITMAP
18
34
42
00
FF
82
86
04
0C
18
10
30
60
41
C1
FF
ENDCHAR
STARTCHAR 1E91
ENCODING 7825
SWIDTH 421 0
DWIDTH 8 0
BBX 7 14 1 0
BITMAP
10
38
4C
84
00
FE
84
08
18
30
20
62
C2
FE
ENDCHAR
STARTCHAR 1E92
ENCODING 7826
SWIDTH 526 0
DWIDTH 10 0
BBX 8 16 1 -4
BITMAP
FF
82
86
04
0C
18
10
30
60
41
C1
FF
00
00
10
10
ENDCHAR
STARTCHAR 1E93
ENCODING 7827
SWIDTH 421 0
DWIDTH 8 0
BBX 7 13 1 -4
BITMAP
FE
84
08
18
30
20
62
C2
FE
00
00
10
10
ENDCHAR
STARTCHAR 1E94
ENCODING 7828
SWIDTH 526 0
DWIDTH 10 0
BBX 8 15 1 -3
BITMAP
FF
82
86
04
0C
18
10
30
60
41
C1
FF
00
00
7E
ENDCHAR
STARTCHAR 1E95
ENCODING 7829
SWIDTH 421 0
DWIDTH 8 0
BBX 7 12 1 -3
BITMAP
FE
84
08
18
30
20
62
C2
FE
00
00
FC
ENDCHAR
STARTCHAR 1E96
ENCODING 7830
SWIDTH 526 0
DWIDTH 10 0
BBX 8 17 1 -3
BITMAP
40
C0
40
40
40
4C
52
62
42
42
42
42
42
E7
00
00
7E
ENDCHAR
STARTCHAR 1E97
ENCODING 7831
SWIDTH 368 0
DWIDTH 7 0
BBX 6 15 0 0
BITMAP
84
84
84
20
20
20
7C
20
20
20
20
20
20
24
38
ENDCHAR
STARTCHAR 1E98
ENCODING 7832
SWIDTH 684 0
DWIDTH 13 0
BBX 13 14 0 0
BITMAP
0300
0480
0480
0700
0000
F238
6310
2310
2510
35A0
14A0
18E0
18C0
1840
ENDCHAR
STARTCHAR 1E99
ENCODING 7833
SWIDTH 473 0
DWIDTH 9 0
BBX 9 18 0 -4
BITMAP
0C00
1200
2200
1C00
0000
F380
6100
2100
3200
1200
1400
1C00
0C00
0800
0800
1000
B000
E000
ENDCHAR
STARTCHAR 1EA0
ENCODING 7840
SWIDTH 578 0
DWIDTH 11 0
BBX 11 16 0 -4
BITMAP
0400
0600
0E00
0A00
0B00
1100
1100
1F80
2180
2080
20C0
60E0
9100
0000
0400
0400
ENDCHAR
STARTCHAR 1EA1
ENCODING 7841
SWIDTH 473 0
DWIDTH 9 0
BBX 7 13 1 -4
BITMAP
3C
44
84
04
3C
C4
84
8C
76
00
00
10
10
ENDCHAR
STARTCHAR 1EA2
ENCODING 7842
SWIDTH 578 0
DWIDTH 11 0
BBX 11 17 0 0
BITMAP
0600
0A00
0400
0400
0200
0400
0600
0E00
0A00
0B00
1100
1100
1F80
2180
2080
20C0
F1E0
ENDCHAR
STARTCHAR 1EA3
ENCODING 7843
SWIDTH 473 0
DWIDTH 9 0
BBX 7 14 1 0
BITMAP
18
28
10
10
00
3C
44
84
04
3C
C4
84
8C
76
ENDCHAR
STARTCHAR 1EA4
ENCODING 7844
SWIDTH 578 0
DWIDTH 11 0
BBX 11 20 0 0
BITMAP
0100
0380
0400
0800
0400
0A00
1100
0000
0400
0600
0E00
0A00
0B00
1100
1100
1F80
2180
2080
20C0
F1E0
ENDCHAR
STARTCHAR 1EA5
ENCODING 7845
SWIDTH 473 0
DWIDTH 9 0
BBX 7 18 1 0
BITMAP
0C
08
10
20
10
38
4C
84
00
3C
44
84
04
3C
C4
84
8C
76
ENDCHAR
STARTCHAR 1EA6
ENCODING 7846
SWIDTH 578 0
DWIDTH 11 0
BBX 11 20 0 0
BITMAP
1000
3800
0600
0000
0400
0A00
1100
0000
0400
0600
0E00
0A00
0B00
1100
1100
1F80
2180
2080
20C0
F1E0
ENDCHAR
STARTCHAR 1EA7
ENCODING 7847
SWIDTH 473 0
DWIDTH 9 0
BBX 7 18 1 0
BITMAP
60
20
10
10
18
38
4C
84
00
3C
44
84
04
3C
C4
84
8C
76
ENDCHAR
STARTCHAR 1EA8
ENCODING 7848
SWIDTH 578 0
DWIDTH 11 0
BBX 11 21 0 0
BITMAP
0200
0E00
0200
0400
0200
0400
0A00
1100
0000
0400
0600
0E00
0A00
0B00
1100
1100
1F80
2180
2080
20C0
F1E0
ENDCHAR
STARTCHAR 1EA9
ENCODING 7849
SWIDTH 473 0
DWIDTH 9 0
BBX 7 18 1 0
BITMAP
18
28
10
10
10
38
4C
84
00
3C
44
84
04
3C
C4
84
8C
76
ENDCHAR
STARTCHAR 1EAA
ENCODING 7850
SWIDTH 578 0
DWIDTH 11 0
BBX 11 19 0 0
BITMAP
0880
1700
2000
0400
0A00
1100
0000
0400
0600
0E00
0A00
0B00
1100
1100
1F80
2180
2080
20C0
F1E0
ENDCHAR
STARTCHAR 1EAB
ENCODING 7851
SWIDTH 473 0
DWIDTH 9 0
BBX 7 17 1 0
BITMAP
76
74
98
10
38
4C
84
00
3C
44
84
04
3C
C4
84
8C
76
ENDCHAR
STARTCHAR 1EAC
ENCODING 7852
SWIDTH 578 0
DWIDTH 11 0
BBX 11 20 0 -4
BITMAP
0400
0A00
1100
0000
0400
0600
0E00
0A00
0B00
1100
1100
1F80
2180
2080
20C0
60E0
9100
0000
0400
0400
ENDCHAR
STARTCHAR 1EAD
ENCODING 7853
SWIDTH 473 0
DWIDTH 9 0
BBX 7 18 1 -4
BITMAP
10
38
4C
84
00
3C
44
84
04
3C
C4
84
8C
76
00
00
10
10
ENDCHAR
STARTCHAR 1EAE
ENCODING 7854
SWIDTH 578 0
DWIDTH 11 0
BBX 11 19 0 0
BITMAP
0100
0380
0C00
2080
1100
0E00
0000
0400
0600
0E00
0A00
0B00
1100
1100
1F80
2180
2080
20C0
F1E0
ENDCHAR
STARTCHAR 1EAF
ENCODING 7855
SWIDTH 473 0
DWIDTH 9 0
BBX 7 17 1 0
BITMAP
0C
08
10
10
84
44
38
00
3C
44
84
04
3C
C4
84
8C
76
ENDCHAR
STARTCHAR 1EB0
ENCODING 7856
SWIDTH 578 0
DWIDTH 11 0
BBX 11 19 0 0
BITMAP
1000
3C00
0200
2080
1100
0E00
0000
0400
0600
0E00
0A00
0B00
1100
1100
1F80
2180
2080
20C0
F1E0
ENDCHAR
STARTCHAR 1EB1
ENCODING 7857
SWIDTH 473 0
DWIDTH 9 0
BBX 7 17 1 0
BITMAP
60
20
10
10
8C
44
38
00
3C
44
84
04
3C
C4
84
8C
76
ENDCHAR
STARTCHAR 1EB2
ENCODING 7858
SWIDTH 578 0
DWIDTH 11 0
BBX 11 20 0 0
BITMAP
0600
0A00
0200
0400
2280
1100
0E00
0000
0400
0600
0E00
0A00
0B00
1100
1100
1F80
2180
2080
20C0
F1E0
ENDCHAR
STARTCHAR 1EB3
ENCODING 7859
SWIDTH 473 0
DWIDTH 9 0
BBX 7 17 1 0
BITMAP
18
28
10
10
84
44
38
00
3C
44
84
04
3C
C4
84
8C
76
ENDCHAR
STARTCHAR 1EB4
ENCODING 7860
SWIDTH 578 0
DWIDTH 11 0
BBX 11 19 0 0
BITMAP
1C80
2700
0000
2080
1100
0E00
0000
0400
0600
0E00
0A00
0B00
1100
1100
1F80
2180
2080
20C0
F1E0
ENDCHAR
STARTCHAR 1EB5
ENCODING 7861
SWIDTH 473 0
DWIDTH 9 0
BBX 7 16 1 0
BITMAP
22
74
98
84
44
38
00
3C
44
84
04
3C
C4
84
8C
76
ENDCHAR
STARTCHAR 1EB6
ENCODING 7862
SWIDTH 578 0
DWIDTH 11 0
BBX 11 20 0 -4
BITMAP
2080
1100
0E00
0000
0400
0600
0E00
0A00
0B00
1100
1100
1F80
2180
2080
20C0
60E0
9100
0000
0400
0400
ENDCHAR
STARTCHAR 1EB7
ENCODING 7863
SWIDTH 473 0
DWIDTH 9 0
BBX 7 17 1 -4
BITMAP
84
44
38
00
3C
44
84
04
3C
C4
84
8C
76
00
00
10
10
ENDCHAR
STARTCHAR 1EB8
ENCODING 7864
SWIDTH 473 0
DWIDTH 9 0
BBX 8 16 1 -4
BITMAP
FE
42
40
40
40
7C
48
40
40
42
43
FE
00
00
10
10
ENDCHAR
STARTCHAR 1EB9
ENCODING 7865
SWIDTH 473 0
DWIDTH 9 0
BBX 7 13 1 -4
BITMAP
3C
44
82
82
FE
80
80
42
3C
00
00
10
10
ENDCHAR
STARTCHAR 1EBA
ENCODING 7866
SWIDTH 473 0
DWIDTH 9 0
BBX 8 17 1 0
BITMAP
18
28
08
10
08
FE
42
40
40
40
7C
48
40
40
42
43
FE
ENDCHAR
STARTCHAR 1EBB
ENCODING 7867
SWIDTH 473 0
DWIDTH 9 0
BBX 7 14 1 0
BITMAP
18
2C
08
10
08
3C
44
82
82
FE
80
80
42
3C
ENDCHAR
STARTCHAR 1EBC
ENCODING 7868
SWIDTH 473 0
DWIDTH 9 0
BBX 8 15 1 0
BITMAP
32
DC
00
FE
42
40
40
40
7C
48
40
40
42
43
FE
ENDCHAR
STARTCHAR 1EBD
ENCODING 7869
SWIDTH 473 0
DWIDTH 9 0
BBX 7 13 1 0
BITMAP
32
74
9C
00
3C
44
82
82
FE
80
80
42
3C
ENDCHAR
STARTCHAR 1EBE
ENCODING 7870
SWIDTH 473 0
DWIDTH 9 0
BBX 8 20 1 0
BITMAP
04
0E
10
20
18
2C
44
02
FE
42
40
40
40
7C
48
40
40
42
43
FE
ENDCHAR
STARTCHAR 1EBF
ENCODING 7871
SWIDTH 473 0
DWIDTH 9 0
BBX 7 18 1 0
BITMAP
06
08
18
10
18
38
24
42
00
3C
44
82
82
FE
80
80
42
3C
ENDCHAR
STARTCHAR 1EC0
ENCODING 7872
SWIDTH 473 0
DWIDTH 9 0
BBX 8 20 1 0
BITMAP
40
60
18
00
18
2C
44
02
FE
42
40
40
40
7C
48
40
40
42
43
FE
ENDCHAR
STARTCHAR 1EC1
ENCODING 7873
SWIDTH 473 0
DWIDTH 9 0
BBX 7 18 1 0
BITMAP
60
30
10
08
18
38
24
42
00
3C
44
82
82
FE
80
80
42
3C
ENDCHAR
STARTCHAR 1EC2
ENCODING 7874
SWIDTH 473 0
DWIDTH 9 0
BBX 8 21 1 0
BITMAP
08
38
08
10
08
18
2C
44
02
FE
42
40
40
40
7C
48
40
40
42
43
FE
ENDCHAR
STARTCHAR 1EC3
ENCODING 7875
SWIDTH 473 0
DWIDTH 9 0
BBX 7 18 1 0
BITMAP
18
2C
10
10
18
38
24
42
00
3C
44
82
82
FE
80
80
42
3C
ENDCHAR
STARTCHAR 1EC4
ENCODING 7876
SWIDTH 473 0
DWIDTH 9 0
BBX 8 19 1 0
BITMAP
22
5C
80
18
2C
44
02
FE
42
40
40
40
7C
48
40
40
42
43
FE
ENDCHAR
STARTCHAR 1EC5
ENCODING 7877
SWIDTH 473 0
DWIDTH 9 0
BBX 7 17 1 0
BITMAP
32
7C
88
18
38
24
42
00
3C
44
82
82
FE
80
80
42
3C
ENDCHAR
STARTCHAR 1EC6
ENCODING 7878
SWIDTH 473 0
DWIDTH 9 0
BBX 8 20 1 -4
BITMAP
18
2C
44
02
FE
42
40
40
40
7C
48
40
40
42
43
FE
00
00
10
10
ENDCHAR
STARTCHAR 1EC7
ENCODING 7879
SWIDTH 473 0
DWIDTH 9 0
BBX 7 18 1 -4
BITMAP
18
38
24
42
00
3C
44
82
82
FE
80
80
42
3C
00
00
10
10
ENDCHAR
STARTCHAR 1EC8
ENCODING 7880
SWIDTH 315 0
DWIDTH 6 0
BBX 4 17 1 0
BITMAP
60
90
20
40
20
E0
40
40
40
40
40
40
40
40
40
40
E0
ENDCHAR
STARTCHAR 1EC9
ENCODING 7881
SWIDTH 263 0
DWIDTH 5 0
BBX 3 14 1 0
BITMAP
60
A0
20
40
20
40
C0
40
40
40
40
40
40
E0
ENDCHAR
STARTCHAR 1ECA
ENCODING 7882
SWIDTH 315 0
DWIDTH 6 0
BBX 3 16 1 -4
BITMAP
E0
40
40
40
40
40
40
40
40
40
40
E0
00
00
40
40
ENDCHAR
STARTCHAR 1ECB
ENCODING 7883
SWIDTH 263 0
DWIDTH 5 0
BBX 3 16 1 -4
BITMAP
C0
C0
00
40
C0
40
40
40
40
40
40
E0
00
00
40
40
ENDCHAR
STARTCHAR 1ECC
ENCODING 7884
SWIDTH 578 0
DWIDTH 11 0
BBX 9 16 1 -4
BITMAP
1E00
6300
8100
8080
8080
8080
8080
8080
8080
4100
6200
3C00
0000
0000
0800
0800
ENDCHAR
STARTCHAR 1ECD
ENCODING 7885
SWIDTH 526 0
DWIDTH 10 0
BBX 8 13 1 -4
BITMAP
3C
42
81
81
81
81
82
42
3C
00
00
10
10
ENDCHAR
STARTCHAR 1ECE
ENCODING 7886
SWIDTH 578 0
DWIDTH 11 0
BBX 9 17 1 0
BITMAP
0C00
1600
0400
0800
0400
1E00
6300
8100
8080
8080
8080
8080
8080
8080
4100
6200
3C00
ENDCHAR
STARTCHAR 1ECF
ENCODING 7887
SWIDTH 526 0
DWIDTH 10 0
BBX 8 14 1 0
BITMAP
0C
14
08
18
00
3C
42
81
81
81
81
82
42
3C
ENDCHAR
STARTCHAR 1ED0
ENCODING 7888
SWIDTH 578 0
DWIDTH 11 0
BBX 9 20 1 0
BITMAP
0200
0700
0800
1000
0C00
1600
2200
0100
1E00
6300
8100
8080
8080
8080
8080
8080
8080
4100
6200
3C00
ENDCHAR
STARTCHAR 1ED1
ENCODING 7889
SWIDTH 526 0
DWIDTH 10 0
BBX 8 18 1 0
BITMAP
06
0C
08
10
18
38
24
42
00
3C
42
81
81
81
81
82
42
3C
ENDCHAR
STARTCHAR 1ED2
ENCODING 7890
SWIDTH 578 0
DWIDTH 11 0
BBX 9 20 1 0
BITMAP
2000
3000
0C00
0000
0C00
1600
2200
0100
1E00
6300
8100
8080
8080
8080
8080
8080
8080
4100
6200
3C00
ENDCHAR
STARTCHAR 1ED3
ENCODING 7891
SWIDTH 526 0
DWIDTH 10 0
BBX 8 18 1 0
BITMAP
60
30
10
08
18
38
24
42
00
3C
42
81
81
81
81
82
42
3C
ENDCHAR
STARTCHAR 1ED4
ENCODING 7892
SWIDTH 578 0
DWIDTH 11 0
BBX 9 21 1 0
BITMAP
0400
0E00
0400
0800
0400
0C00
1600
2200
0100
1E00
6300
8100
8080
8080
8080
8080
8080
8080
4100
6200
3C00
ENDCHAR
STARTCHAR 1ED5
ENCODING 7893
SWIDTH 526 0
DWIDTH 10 0
BBX 8 18 1 0
BITMAP
1C
14
08
18
18
38
24
42
00
3C
42
81
81
81
81
82
42
3C
ENDCHAR
STARTCHAR 1ED6
ENCODING 7894
SWIDTH 578 0
DWIDTH 11 0
BBX 9 19 1 0
BITMAP
1100
2E00
0000
0C00
1600
2200
0100
1E00
6300
8100
8080
8080
8080
8080
8080
8080
4100
6200
3C00
ENDCHAR
STARTCHAR 1ED7
ENCODING 7895
SWIDTH 526 0
DWIDTH 10 0
BBX 8 17 1 0
BITMAP
32
7C
4C
18
38
24
42
00
3C
42
81
81
81
81
82
42
3C
ENDCHAR
STARTCHAR 1ED8
ENCODING 7896
SWIDTH 578 0
DWIDTH 11 0
BBX 9 20 1 -4
BITMAP
0C00
1600
2200
0100
1E00
6300
8100
8080
8080
8080
8080
8080
8080
4100
6200
3C00
0000
0000
0800
0800
ENDCHAR
STARTCHAR 1ED9
ENCODING 7897
SWIDTH 526 0
DWIDTH 10 0
BBX 8 18 1 -4
BITMAP
18
38
24
42
00
3C
42
81
81
81
81
82
42
3C
00
00
10
10
ENDCHAR
STARTCHAR 1EDA
ENCODING 7898
SWIDTH 578 0
DWIDTH 11 0
BBX 10 16 1 0
BITMAP
0300
0600
1840
00C0
1E80
6300
8100
8080
8080
8080
8080
8080
8100
4100
6200
3C00
ENDCHAR
STARTCHAR 1EDB
ENCODING 7899
SWIDTH 526 0
DWIDTH 10 0
BBX 9 14 1 0
BITMAP
0600
0C00
0800
1080
0080
1E80
6300
8100
8100
8100
8100
8200
4200
3C00
ENDCHAR
STARTCHAR 1EDC
ENCODING 7900
SWIDTH 578 0
DWIDTH 11 0
BBX 10 16 1 0
BITMAP
2000
1800
0440
00C0
1E80
6300
8100
8080
8080
8080
8080
8080
8100
4100
6200
3C00
ENDCHAR
STARTCHAR 1EDD
ENCODING 7901
SWIDTH 526 0
DWIDTH 10 0
BBX 9 14 1 0
BITMAP
6000
3000
1000
0880
0080
1E80
6300
8100
8100
8100
8100
8200
4200
3C00
ENDCHAR
STARTCHAR 1EDE
ENCODING 7902
SWIDTH 578 0
DWIDTH 11 0
BBX 10 17 1 0
BITMAP
0C00
1600
0400
0840
04C0
1E80
6300
8100
8080
8080
8080
8080
8080
8100
4100
6200
3C00
ENDCHAR
STARTCHAR 1EDF
ENCODING 7903
SWIDTH 526 0
DWIDTH 10 0
BBX 9 14 1 0
BITMAP
0C00
1400
0800
1880
0080
1E80
6300
8100
8100
8100
8100
8200
4200
3C00
ENDCHAR
STARTCHAR 1EE0
ENCODING 7904
SWIDTH 578 0
DWIDTH 11 0
BBX 10 15 1 0
BITMAP
1900
6E40
00C0
1E80
6300
8100
8080
8080
8080
8080
8080
8100
4100
6200
3C00
ENDCHAR
STARTCHAR 1EE1
ENCODING 7905
SWIDTH 526 0
DWIDTH 10 0
BBX 9 13 1 0
BITMAP
3200
7A00
4C80
0080
1E80
6300
8100
8100
8100
8100
8200
4200
3C00
ENDCHAR
STARTCHAR 1EE2
ENCODING 7906
SWIDTH 578 0
DWIDTH 11 0
BBX 10 18 1 -4
BITMAP
0040
00C0
1E80
6300
8100
8080
8080
8080
8080
8080
8100
4100
6200
3C00
0000
0000
0800
0800
ENDCHAR
STARTCHAR 1EE3
ENCODING 7907
SWIDTH 526 0
DWIDTH 10 0
BBX 9 15 1 -4
BITMAP
0080
0080
1E80
6300
8100
8100
8100
8100
8200
4200
3C00
0000
0000
1000
1000
ENDCHAR
STARTCHAR 1EE4
ENCODING 7908
SWIDTH 631 0
DWIDTH 12 0
BBX 10 16 1 -4
BITMAP
E1C0
4080
4080
4080
4080
4080
4080
4080
4080
4080
2100
1E00
0000
0000
0400
0400
ENDCHAR
STARTCHAR 1EE5
ENCODING 7909
SWIDTH 526 0
DWIDTH 10 0
BBX 8 13 1 -4
BITMAP
C6
42
42
42
42
42
42
46
3B
00
00
10
10
ENDCHAR
STARTCHAR 1EE6
ENCODING 7910
SWIDTH 631 0
DWIDTH 12 0
BBX 10 17 1 0
BITMAP
0600
0A00
0400
0400
0000
E1C0
4080
4080
4080
4080
4080
4080
4080
4080
4080
2100
1E00
ENDCHAR
STARTCHAR 1EE7
ENCODING 7911
SWIDTH 526 0
DWIDTH 10 0
BBX 8 14 1 0
BITMAP
0C
14
08
18
00
C6
42
42
42
42
42
42
46
3B
ENDCHAR
STARTCHAR 1EE8
ENCODING 7912
SWIDTH 684 0
DWIDTH 13 0
BBX 12 16 1 0
BITMAP
0100
0600
0820
0070
E1E0
4080
4080
4080
4080
4080
4080
4080
4080
4080
2100
1E00
ENDCHAR
STARTCHAR 1EE9
ENCODING 7913
SWIDTH 631 0
DWIDTH 12 0
BBX 10 14 1 0
BITMAP
0600
0C00
0800
1040
00C0
4680
C300
4200
4200
4200
4200
4200
4600
3B80
ENDCHAR
STARTCHAR 1EEA
ENCODING 7914
SWIDTH 684 0
DWIDTH 13 0
BBX 12 16 1 0
BITMAP
3000
1800
0620
0070
E1E0
4080
4080
4080
4080
4080
4080
4080
4080
4080
2100
1E00
ENDCHAR
STARTCHAR 1EEB
ENCODING 7915
SWIDTH 631 0
DWIDTH 12 0
BBX 10 14 1 0
BITMAP
6000
3000
1000
0840
00C0
4680
C300
4200
4200
4200
4200
4200
4600
3B80
ENDCHAR
STARTCHAR 1EEC
ENCODING 7916
SWIDTH 684 0
DWIDTH 13 0
BBX 12 17 1 0
BITMAP
0600
0A00
0400
0420
0070
E1E0
4080
4080
4080
4080
4080
4080
4080
4080
4080
2100
1E00
ENDCHAR
STARTCHAR 1EED
ENCODING 7917
SWIDTH 631 0
DWIDTH 12 0
BBX 10 14 1 0
BITMAP
0C00
1400
0800
1840
00C0
4680
C300
4200
4200
4200
4200
4200
4600
3B80
ENDCHAR
STARTCHAR 1EEE
ENCODING 7918
SWIDTH 684 0
DWIDTH 13 0
BBX 12 15 1 0
BITMAP
1D00
2620
0070
E1E0
4080
4080
4080
4080
4080
4080
4080
4080
4080
2100
1E00
ENDCHAR
STARTCHAR 1EEF
ENCODING 7919
SWIDTH 631 0
DWIDTH 12 0
BBX 10 13 1 0
BITMAP
3200
7A00
4C40
00C0
4680
C300
4200
4200
4200
4200
4200
4600
3B80
ENDCHAR
STARTCHAR 1EF0
ENCODING 7920
SWIDTH 684 0
DWIDTH 13 0
BBX 12 18 1 -4
BITMAP
0020
0070
E1E0
4080
4080
4080
4080
4080
4080
4080
4080
4080
2100
1E00
0000
0000
0400
0400
ENDCHAR
STARTCHAR 1EF1
ENCODING 7921
SWIDTH 631 0
DWIDTH 12 0
BBX 10 15 1 -4
BITMAP
0040
00C0
4680
C300
4200
4200
4200
4200
4200
4600
3B80
0000
0000
1000
1000
ENDCHAR
STARTCHAR 1EF2
ENCODING 7922
SWIDTH 578 0
DWIDTH 11 0
BBX 11 16 0 0
BITMAP
1000
2C00
0200
0000
E1E0
3080
3180
1900
0A00
0E00
0400
0400
0400
0400
0400
1F00
ENDCHAR
STARTCHAR 1EF3
ENCODING 7923
SWIDTH 473 0
DWIDTH 9 0
BBX 9 18 0 -4
BITMAP
3000
1800
0800
0400
0000
F380
6100
2100
3200
1200
1400
1C00
0C00
0800
0800
1000
B000
E000
ENDCHAR
STARTCHAR 1EF4
ENCODING 7924
SWIDTH 578 0
DWIDTH 11 0
BBX 11 16 0 -4
BITMAP
E1E0
3080
3180
1900
0A00
0E00
0400
0400
0400
0400
0400
0E00
1100
0000
0400
0400
ENDCHAR
STARTCHAR 1EF5
ENCODING 7925
SWIDTH 473 0
DWIDTH 9 0
BBX 9 13 0 -4
BITMAP
F380
6100
2100
3200
1200
1400
1C00
0C00
0800
0800
1000
B100
E200
ENDCHAR
STARTCHAR 1EF6
ENCODING 7926
SWIDTH 578 0
DWIDTH 11 0
BBX 11 17 0 0
BITMAP
0600
0A00
0200
0400
0200
E1E0
3080
3180
1900
0A00
0E00
0400
0400
0400
0400
0400
1F00
ENDCHAR
STARTCHAR 1EF7
ENCODING 7927
SWIDTH 473 0
DWIDTH 9 0
BBX 9 18 0 -4
BITMAP
0600
0A00
0400
0800
0400
F380
6100
2100
3200
1200
1400
1C00
0C00
0800
0800
1000
B000
E000
ENDCHAR
STARTCHAR 1EF8
ENCODING 7928
SWIDTH 578 0
DWIDTH 11 0
BBX 11 15 0 0
BITMAP
1C80
2700
0000
E1E0
3080
3180
1900
0A00
0E00
0400
0400
0400
0400
0400
1F00
ENDCHAR
STARTCHAR 1EF9
ENCODING 7929
SWIDTH 473 0
DWIDTH 9 0
BBX 9 17 0 -4
BITMAP
1900
3D00
2600
0000
F380
6100
2100
3200
1200
1400
1C00
0C00
0800
0800
1000
B000
E000
ENDCHAR
STARTCHAR 2011
ENCODING 8209
SWIDTH 315 0
DWIDTH 6 0
BBX 5 1 1 4
BITMAP
F8
ENDCHAR
STARTCHAR 2013
ENCODING 8211
SWIDTH 473 0
DWIDTH 9 0
BBX 7 1 1 4
BITMAP
FE
ENDCHAR
STARTCHAR 2014
ENCODING 8212
SWIDTH 789 0
DWIDTH 15 0
BBX 13 1 1 4
BITMAP
FFF8
ENDCHAR
STARTCHAR 2018
ENCODING 8216
SWIDTH 210 0
DWIDTH 4 0
BBX 2 5 1 8
BITMAP
80
80
80
C0
80
ENDCHAR
STARTCHAR 2019
ENCODING 8217
SWIDTH 210 0
DWIDTH 4 0
BBX 2 5 1 9
BITMAP
40
C0
40
40
80
ENDCHAR
STARTCHAR 201A
ENCODING 8218
SWIDTH 210 0
DWIDTH 4 0
BBX 2 5 1 -3
BITMAP
40
C0
40
40
80
ENDCHAR
STARTCHAR 201C
ENCODING 8220
SWIDTH 421 0
DWIDTH 8 0
BBX 6 5 1 8
BITMAP
84
88
88
CC
88
ENDCHAR
STARTCHAR 201D
ENCODING 8221
SWIDTH 421 0
DWIDTH 8 0
BBX 6 5 1 9
BITMAP
84
CC
44
84
88
ENDCHAR
STARTCHAR 201E
ENCODING 8222
SWIDTH 473 0
DWIDTH 9 0
BBX 7 5 1 -3
BITMAP
82
C6
42
82
84
ENDCHAR
STARTCHAR 2020
ENCODING 8224
SWIDTH 473 0
DWIDTH 9 0
BBX 7 14 1 0
BITMAP
10
10
10
10
FE
10
10
10
10
10
10
10
10
10
ENDCHAR
STARTCHAR 2021
ENCODING 8225
SWIDTH 473 0
DWIDTH 9 0
BBX 7 14 1 0
BITMAP
10
10
10
10
FE
10
10
10
10
10
FE
10
10
10
ENDCHAR
STARTCHAR 2022
ENCODING 8226
SWIDTH 263 0
DWIDTH 5 0
BBX 4 4 1 4
BITMAP
E0
F0
F0
E0
ENDCHAR
STARTCHAR 2026
ENCODING 8230
SWIDTH 684 0
DWIDTH 13 0
BBX 10 3 1 -1
BITMAP
CC40
CCC0
8CC0
ENDCHAR
STARTCHAR 2030
ENCODING 8240
SWIDTH 1000 0
DWIDTH 19 0
BBX 17 11 1 0
BITMAP
704000
908000
898000
8B0000
920000
75C300
0A2480
1A2480
122480
222480
41C300
ENDCHAR
STARTCHAR 2039
ENCODING 8249
SWIDTH 315 0
DWIDTH 6 0
BBX 3 8 1 0
BITMAP
20
20
40
C0
C0
40
20
20
ENDCHAR
STARTCHAR 203A
ENCODING 8250
SWIDTH 315 0
DWIDTH 6 0
BBX 4 8 1 0
BITMAP
80
40
20
30
30
20
40
80
ENDCHAR
STARTCHAR 2044
ENCODING 8260
SWIDTH 578 0
DWIDTH 11 0
BBX 8 11 2 0
BITMAP
01
02
04
04
08
10
10
20
40
40
80
ENDCHAR
STARTCHAR 20AC
ENCODING 8364
SWIDTH 473 0
DWIDTH 9 0
BBX 9 11 0 0
BITMAP
0F00
1100
2000
2000
7C00
E000
FC00
6000
2000
3180
1E00
ENDCHAR
STARTCHAR 2122
ENCODING 8482
SWIDTH 578 0
DWIDTH 11 0
BBX 11 5 0 7
BITMAP
FC40
B6C0
26C0
2540
75E0
ENDCHAR
STARTCHAR 2126
ENCODING 8486
SWIDTH 631 0
DWIDTH 12 0
BBX 10 12 1 0
BITMAP
1F00
2180
4080
8040
8040
8040
8040
8040
4080
C140
A240
E3C0
ENDCHAR
STARTCHAR 2202
ENCODING 8706
SWIDTH 526 0
DWIDTH 10 0
BBX 8 13 1 0
BITMAP
3E
42
01
01
1D
63
81
81
81
81
82
42
3C
ENDCHAR
STARTCHAR 2205
ENCODING 8709
SWIDTH 684 0
DWIDTH 13 0
BBX 11 14 1 -1
BITMAP
0020
1F40
2080
41C0
8120
8220
8420
8420
8820
9040
7040
2080
5F00
8000
ENDCHAR
STARTCHAR 2206
ENCODING 8710
SWIDTH 578 0
DWIDTH 11 0
BBX 9 12 1 0
BITMAP
0800
1800
1C00
1C00
2400
2600
6200
4300
4300
8100
8180
FF80
ENDCHAR
STARTCHAR 220F
ENCODING 8719
SWIDTH 631 0
DWIDTH 12 0
BBX 10 12 1 0
BITMAP
FFC0
4080
4080
4080
4080
4080
4080
4080
4080
4080
4080
E1C0
ENDCHAR
STARTCHAR 2211
ENCODING 8721
SWIDTH 526 0
DWIDTH 10 0
BBX 8 12 1 0
BITMAP
FF
41
61
30
10
18
18
30
20
41
C1
FF
ENDCHAR
STARTCHAR 2212
ENCODING 8722
SWIDTH 421 0
DWIDTH 8 0
BBX 6 1 1 5
BITMAP
FC
ENDCHAR
STARTCHAR 2219
ENCODING 8729
SWIDTH 157 0
DWIDTH 3 0
BBX 1 2 1 5
BITMAP
80
80
ENDCHAR
STARTCHAR 221A
ENCODING 8730
SWIDTH 578 0
DWIDTH 11 0
BBX 11 13 0 0
BITMAP
0060
0040
0080
0080
0080
E080
3100
1100
1900
0A00
0E00
0600
0400
ENDCHAR
STARTCHAR 221E
ENCODING 8734
SWIDTH 684 0
DWIDTH 13 0
BBX 11 5 1 3
BITMAP
79C0
9F20
8E20
8F20
73C0
ENDCHAR
STARTCHAR 222B
ENCODING 8747
SWIDTH 263 0
DWIDTH 5 0
BBX 8 18 -2 -4
BITMAP
07
09
08
08
08
08
08
08
08
08
08
08
08
08
08
08
08
F0
ENDCHAR
STARTCHAR 2248
ENCODING 8776
SWIDTH 421 0
DWIDTH 8 0
BBX 7 4 1 3
BITMAP
E2
9C
E2
9C
ENDCHAR
STARTCHAR 2260
ENCODING 8800
SWIDTH 421 0
DWIDTH 8 0
BBX 7 8 1 1
BITMAP
04
08
FE
10
30
FE
40
C0
ENDCHAR
STARTCHAR 2264
ENCODING 8804
SWIDTH 421 0
DWIDTH 8 0
BBX 7 7 1 2
BITMAP
06
1C
E0
E0
38
06
FE
ENDCHAR
STARTCHAR 2265
ENCODING 8805
SWIDTH 421 0
DWIDTH 8 0
BBX 7 7 1 2
BITMAP
C0
70
0E
1C
70
80
FE
ENDCHAR
STARTCHAR 25CA
ENCODING 9674
SWIDTH 315 0
DWIDTH 6 0
BBX 6 12 0 0
BITMAP
10
30
38
48
4C
84
C4
44
68
28
30
10
ENDCHAR
STARTCHAR 25CC
ENCODING 9676
SWIDTH 526 0
DWIDTH 10 0
BBX 8 9 1 0
BITMAP
10
24
42
81
81
00
81
42
34
ENDCHAR
STARTCHAR 2C60
ENCODING 11360
SWIDTH 473 0
DWIDTH 9 0
BBX 7 12 1 0
BITMAP
E0
40
40
40
40
F0
40
F0
40
42
42
FE
ENDCHAR
STARTCHAR 2C61
ENCODING 11361
SWIDTH 315 0
DWIDTH 6 0
BBX 5 14 1 0
BITMAP
60
20
20
20
20
F8
20
F8
20
20
20
20
20
70
ENDCHAR
STARTCHAR 2C62
ENCODING 11362
SWIDTH 473 0
DWIDTH 9 0
BBX 8 12 0 0
BITMAP
70
20
20
20
20
68
B0
20
20
21
21
7F
ENDCHAR
STARTCHAR A789
ENCODING 42889
SWIDTH 210 0
DWIDTH 4 0
BBX 2 7 1 1
BITMAP
C0
C0
80
00
C0
C0
80
ENDCHAR
STARTCHAR A78A
ENCODING 42890
SWIDTH 315 0
DWIDTH 6 0
BBX 5 3 1 3
BITMAP
F8
00
F8
ENDCHAR
STARTCHAR A78B
ENCODING 42891
SWIDTH 263 0
DWIDTH 5 0
BBX 2 9 1 6
BITMAP
C0
C0
C0
C0
40
40
40
40
40
ENDCHAR
STARTCHAR A78C
ENCODING 42892
SWIDTH 263 0
DWIDTH 5 0
BBX 2 8 1 6
BITMAP
C0
C0
C0
40
40
40
40
40
ENDCHAR
STARTCHAR F130
ENCODING 61744
SWIDTH 157 0
DWIDTH 3 0
BBX 3 3 0 -3
BITMAP
E0
20
20
ENDCHAR
STARTCHAR F131
ENCODING 61745
SWIDTH 157 0
DWIDTH 3 0
BBX 3 3 0 -3
BITMAP
E0
80
80
ENDCHAR
STARTCHAR F195
ENCODING 61845
SWIDTH 210 0
DWIDTH 4 0
BBX 4 4 0 10
BITMAP
C0
40
20
10
ENDCHAR
STARTCHAR F197
ENCODING 61847
SWIDTH 210 0
DWIDTH 4 0
BBX 4 4 0 10
BITMAP
30
60
40
80
ENDCHAR
STARTCHAR F1C8
ENCODING 61896
SWIDTH 368 0
DWIDTH 7 0
BBX 6 7 0 8
BITMAP
38
C4
84
08
10
20
20
ENDCHAR
STARTCHAR F1E9
ENCODING 61929
SWIDTH 210 0
DWIDTH 4 0
BBX 2 7 1 1
BITMAP
C0
C0
80
00
C0
C0
80
ENDCHAR
STARTCHAR F1EA
ENCODING 61930
SWIDTH 315 0
DWIDTH 6 0
BBX 5 3 1 3
BITMAP
F8
00
F8
ENDCHAR
STARTCHAR F20E
ENCODING 61966
SWIDTH 315 0
DWIDTH 6 0
BBX 5 14 1 0
BITMAP
60
20
20
20
20
F8
20
F8
20
20
20
20
20
70
ENDCHAR
STARTCHAR F20F
ENCODING 61967
SWIDTH 473 0
DWIDTH 9 0
BBX 7 12 1 0
BITMAP
E0
40
40
40
40
F0
40
F0
40
42
42
FE
ENDCHAR
STARTCHAR F211
ENCODING 61969
SWIDTH 526 0
DWIDTH 10 0
BBX 11 13 1 -4
BITMAP
3E00
4200
8200
8200
8200
8200
8200
4600
3A00
0200
0220
0220
01C0
ENDCHAR
STARTCHAR F212
ENCODING 61970
SWIDTH 578 0
DWIDTH 11 0
BBX 12 16 1 -4
BITMAP
0E80
3180
4080
8080
8080
8080
8080
8080
8080
4180
6280
1C80
0080
0090
0090
00E0
ENDCHAR
STARTCHAR F218
ENCODING 61976
SWIDTH 631 0
DWIDTH 12 0
BBX 10 12 1 0
BITMAP
E1C0
4080
4080
4080
4080
FFC0
4080
4080
4080
4080
2100
1E00
ENDCHAR
STARTCHAR F219
ENCODING 61977
SWIDTH 631 0
DWIDTH 12 0
BBX 12 12 0 0
BITMAP
0600
0600
0600
0B00
0900
0980
1180
1080
30C0
2040
2040
F0F0
ENDCHAR
STARTCHAR F21D
ENCODING 61981
SWIDTH 263 0
DWIDTH 5 0
BBX 2 8 1 6
BITMAP
C0
C0
C0
40
40
40
40
40
ENDCHAR
STARTCHAR F21E
ENCODING 61982
SWIDTH 421 0
DWIDTH 8 0
BBX 6 9 1 0
BITMAP
38
C4
84
04
18
20
20
20
F8
ENDCHAR
STARTCHAR F21F
ENCODING 61983
SWIDTH 473 0
DWIDTH 9 0
BBX 7 12 1 0
BITMAP
E0
40
40
40
40
40
F0
40
40
42
42
FE
ENDCHAR
STARTCHAR F242
ENCODING 62018
SWIDTH 473 0
DWIDTH 9 0
BBX 8 12 0 0
BITMAP
70
20
20
20
20
68
B0
20
20
21
21
7F
ENDCHAR
STARTCHAR F26A
ENCODING 62058
SWIDTH 263 0
DWIDTH 5 0
BBX 2 9 1 6
BITMAP
C0
C0
C0
C0
40
40
40
40
40
ENDCHAR
STARTCHAR FB01
ENCODING 64257
SWIDTH 578 0
DWIDTH 11 0
BBX 9 14 1 0
BITMAP
1C00
2400
4300
4300
4000
F900
4300
4100
4100
4100
4100
4100
4100
F380
ENDCHAR
STARTCHAR FB02
ENCODING 64258
SWIDTH 578 0
DWIDTH 11 0
BBX 9 14 1 0
BITMAP
1D00
2700
4100
4100
4100
F900
4100
4100
4100
4100
4100
4100
4100
F380
ENDCHAR
ENDFONT
